<svg id="Layer_1" data-name="Layer 1" xmlns="http://www.w3.org/2000/svg" viewBox="0 0 2891.34 3619.96"><defs><style>.cls-1{fill:#fff;}.cls-2{fill:#8cb63e;}</style></defs><title>incubaidfav2</title><path class="cls-1" d="M78.52,1410.07h159.6v844.5H78.52Z"/><path class="cls-1" d="M419.54,1410.07h154.2L935.08,1965.8V1410.07h160.75v844.5H941.19l-360.9-554v554H419.54Z"/><path class="cls-1" d="M2064.92,1558.48l-112.43,107.18q-114.72-121.25-258.12-121.25-121,0-203.92,82.75t-82.88,204q0,84.48,36.7,150T1548.1,2084q67.11,37.35,149.14,37.35,70,0,127.91-26.15t127.34-95.1l109,113.72q-93.58,91.33-176.82,126.65t-190,35.32q-196.92,0-322.36-124.87t-125.44-320.06q0-126.3,57.12-224.48t163.62-157.88q106.49-59.7,229.35-59.7,104.49,0,201.23,44.13T2064.92,1558.48Z"/><path class="cls-1" d="M2199.83,1410.07h161.32v546.1q0,70.57,12.34,99.82t40.76,46.75q28.42,17.49,68.61,17.49,42.48,0,73.2-19.5t42.48-49.61q11.76-30.12,11.77-115v-526h161.32v503.49q0,127.44-14.35,176.82t-54.82,95.3q-40.49,45.95-93.3,68t-122.85,22.11q-91.86,0-159.89-42.2T2229.11,2128q-29.28-63.42-29.28-214.42Z"/><path class="cls-1" d="M90,3324.29V2479.78H222.78q115.53,0,169,14.93,75.89,20.1,120.72,74.63t44.83,128.6q0,48.22-20.38,87.55t-66.31,73.77q76.93,36.18,112.53,90.42T618.75,3078q0,71.19-36.79,129.74t-94.82,87.55q-58,29-160.35,29Zm160.75-691.22v178h35.16q58.77,0,87.3-24.69t28.53-67.17q0-39.61-27.09-62.86t-82.4-23.25Zm0,321.49V3171h40.3q100.15,0,135-25.26t34.83-73.48q0-54.54-40.88-86.12t-135.85-31.58Z"/><path class="cls-2" d="M1069.65,2479.78h163l324.8,844.51H1390.42l-66.08-174H979.75l-68.71,174H744Zm82.52,223.9L1038.86,2993.6H1264.8Z"/><path class="cls-2" d="M1710.27,2479.78h159.6v844.51h-159.6Z"/><path class="cls-2" d="M2091.26,2479.78H2281.7q184.13,0,273.61,45.64t147.42,148.41q57.93,102.77,57.94,240,0,97.6-32.41,179.41T2638.77,3229q-57.08,54-123.61,74.64t-230.59,20.67H2091.26Zm159.6,155v532.77h74.64q110.22,0,159.88-25.29t81.24-85.06q31.56-59.76,31.58-147.13,0-134.48-75.21-208.62-67.75-66.66-217.59-66.67Z"/></svg>