<?xml version="1.0" encoding="utf-8"?>
<!-- Generator: Adobe Illustrator 23.0.1, SVG Export Plug-In . SVG Version: 6.00 Build 0)  -->
<svg version="1.1" id="Layer_1" xmlns="http://www.w3.org/2000/svg" xmlns:xlink="http://www.w3.org/1999/xlink" x="0px" y="0px"
	 viewBox="0 0 500 500" style="enable-background:new 0 0 500 500;" xml:space="preserve">
<style type="text/css">
	.st0{fill:#8CB63E;stroke:#130D0E;stroke-width:8;stroke-linecap:round;stroke-miterlimit:10;stroke-dasharray:970,20;}
	.st1{fill:#6B8538;}
	.st2{fill:#98C9E8;}
	.st3{fill:#6AAEE3;}
	.st4{fill:#B1C966;}
	.st5{fill:#90B83B;}
	.st6{fill:#070809;}
	.st7{fill:#08090A;}
	.st8{fill:#8CB63E;}
	.st9{fill:none;stroke:#130D0E;stroke-width:8;stroke-linecap:round;stroke-miterlimit:10;}
	.st10{fill:#CCE5FA;stroke:#0F0C0D;stroke-width:8;stroke-miterlimit:10;}
	.st11{fill:#85AFCC;}
	.st12{fill:#797681;}
	.st13{fill:#C6C5CA;}
	.st14{fill:#659AD4;}
	.st15{fill:#457ABC;}
	.st16{fill:#0E9699;}
	.st17{fill:#C93E5A;}
	.st18{fill:#C52733;}
	.st19{fill:none;stroke:#070809;stroke-width:11;stroke-miterlimit:10;}
	.st20{fill:#877BB5;}
	.st21{fill:#F0D3BE;}
	.st22{fill:#EAC1AC;}
	.st23{fill:#7A9B3C;stroke:#130D0E;stroke-width:8;stroke-linecap:round;stroke-miterlimit:10;stroke-dasharray:970,20;}
	.st24{fill:#E7E9ED;}
	.st25{fill:#F3D374;}
	.st26{fill:#F0D0B5;}
</style>
<g>
	<g>
		<path d="M115.7,410.7c1.7-2.9,4.1-5.3,7-7c2.9-1.8,6.1-2.6,9.6-2.6c3.4,0,6.6,0.9,9.6,2.6s5.3,4.1,7,7s2.6,6.1,2.6,9.6
			c0,3.5-0.9,6.7-2.6,9.6c-1.7,2.9-4.1,5.3-7,7c-3,1.7-6.2,2.6-9.6,2.6c-3.5,0-6.7-0.8-9.6-2.5c-2.9-1.7-5.3-4-7-6.9
			c-1.7-2.9-2.6-6.2-2.6-9.7C113.1,416.8,114,413.6,115.7,410.7z M120.2,427.4c1.2,2.2,3,3.9,5.1,5.2c2.2,1.3,4.5,1.9,7.1,1.9
			s4.9-0.6,7-1.9c2.1-1.3,3.8-3,5-5.2c1.2-2.2,1.8-4.6,1.8-7.2c0-2.6-0.6-5-1.9-7.2c-1.2-2.2-2.9-4-5.1-5.2
			c-2.1-1.3-4.5-1.9-7.1-1.9c-2.6,0-4.9,0.6-7.1,1.9c-2.1,1.3-3.8,3.1-5.1,5.3c-1.2,2.2-1.8,4.6-1.8,7.2
			C118.3,422.9,118.9,425.2,120.2,427.4z"/>
		<path d="M177.9,418.1c1.6,1,2.9,2.3,3.8,4.1c0.9,1.8,1.4,3.8,1.4,6.1c0,2.3-0.5,4.2-1.5,6c-1,1.7-2.4,3-4.2,4
			c-1.8,0.9-3.7,1.4-5.9,1.4c-1.6,0-3-0.3-4.5-1c-1.4-0.7-2.6-1.6-3.4-2.7v13.6h-4.8v-32.2h4.2l0.4,3.6c1.1-1.2,2.4-2.3,4-3
			c1.5-0.8,3.2-1.1,5-1.1C174.4,416.6,176.3,417.1,177.9,418.1z M174.4,434.7c1.2-0.6,2.1-1.5,2.8-2.7c0.7-1.1,1-2.4,1-3.8
			c0-1.4-0.3-2.7-1-3.8c-0.6-1.1-1.5-2-2.6-2.7s-2.3-1-3.7-1c-1.8,0-3.4,0.5-4.7,1.5c-1.3,1-2.2,2.4-2.6,4.1v3.6
			c0.3,1.7,1.1,3,2.4,4.1c1.3,1.1,2.8,1.6,4.6,1.6C172,435.6,173.2,435.3,174.4,434.7z"/>
		<path d="M205,433.5l2.2,3.6c-1.1,0.8-2.4,1.4-3.7,1.8c-1.3,0.4-2.6,0.6-3.9,0.6c-2.4,0-4.5-0.5-6.3-1.5c-1.8-1-3.2-2.3-4.1-4.1
			c-1-1.7-1.5-3.7-1.5-5.9c0-2.1,0.5-4,1.6-5.8s2.5-3.1,4.3-4.2c1.8-1,3.8-1.5,6-1.5c2.8,0,5.2,0.8,7,2.5c1.9,1.6,3.2,3.9,3.9,6.9
			l-17,6c0.6,1.1,1.5,1.9,2.5,2.5c1.1,0.6,2.3,0.9,3.6,0.9C201.5,435.4,203.3,434.7,205,433.5z M194.5,422.5
			c-1.3,1.4-1.9,3.2-1.9,5.3c0,0.5,0,0.9,0.1,1.2l12.5-4.6c-0.5-1.2-1.3-2.1-2.2-2.9s-2.1-1.1-3.6-1.1
			C197.4,420.4,195.7,421.1,194.5,422.5z"/>
		<path d="M235,418.4c1.3,1.2,2,2.7,2,4.7V439h-4.9v-14.2c-0.1-1.2-0.4-2.2-1.1-2.9c-0.7-0.7-1.6-1.1-3-1.1c-1.9,0-3.5,0.8-4.7,2.3
			c-1.2,1.5-1.9,3.5-1.9,5.8V439h-4.8v-21.5h4.4l0.3,4.2c0.8-1.6,1.9-2.8,3.4-3.7c1.5-0.9,3.3-1.3,5.2-1.3
			C232,416.6,233.7,417.2,235,418.4z"/>
		<path d="M278.1,406.4c-1.5-0.5-3-0.7-4.3-0.7c-2,0-3.7,0.5-4.9,1.4s-1.8,2.2-1.8,3.8c0,1.6,0.7,2.8,2.1,3.8c1.4,1,3.4,2,6,2.9
			c1.9,0.7,3.6,1.4,4.9,2.3c1.3,0.8,2.4,1.9,3.3,3.4c0.9,1.4,1.3,3.3,1.3,5.5c0,2-0.5,3.8-1.5,5.5c-1,1.6-2.4,2.9-4.3,3.8
			c-1.9,0.9-4,1.4-6.5,1.4c-2.3,0-4.6-0.4-6.7-1.1c-2.1-0.7-4-1.7-5.7-2.8l2.2-4c1.3,1,2.8,1.8,4.6,2.5c1.8,0.7,3.5,1,5,1
			c2,0,3.8-0.5,5.3-1.6c1.5-1,2.3-2.6,2.3-4.6c0-1.7-0.6-3.1-1.9-4.1c-1.3-1-3-2-5.3-2.9c-2.1-0.8-3.9-1.6-5.3-2.3
			c-1.4-0.8-2.6-1.8-3.6-3.1c-1-1.3-1.5-3-1.5-5c0-2.9,1-5.3,3.1-7.1s4.7-2.8,8-2.9c4.1,0,7.8,1,11.3,3l-1.9,3.9
			C281.1,407.4,279.7,406.8,278.1,406.4z"/>
		<path d="M291.7,422.2c1-1.8,2.4-3.1,4.3-4.1c1.8-1,3.9-1.5,6.2-1.5s4.3,0.5,6.1,1.5c1.8,1,3.2,2.4,4.2,4.1c1,1.7,1.5,3.7,1.5,5.8
			c0,2.1-0.5,4.1-1.5,5.8c-1,1.8-2.4,3.1-4.2,4.1c-1.8,1-3.9,1.5-6.2,1.5c-2.3,0-4.3-0.5-6.1-1.4c-1.8-1-3.2-2.3-4.2-4
			s-1.5-3.7-1.5-6C290.2,425.9,290.7,424,291.7,422.2z M296,431.8c0.6,1.1,1.4,2,2.5,2.7c1.1,0.7,2.2,1,3.5,1c2,0,3.7-0.7,5-2.1
			c1.3-1.4,2-3.2,2-5.3s-0.7-3.9-2-5.3c-1.3-1.4-3-2.2-5-2.2c-1.3,0-2.5,0.3-3.5,1c-1,0.7-1.9,1.6-2.5,2.7c-0.6,1.1-0.9,2.4-0.9,3.7
			C295.1,429.4,295.4,430.7,296,431.8z"/>
		<path d="M340.4,417.5V439H336l-0.3-4.1c-0.7,1.5-1.9,2.6-3.4,3.6c-1.5,0.9-3.2,1.4-5.1,1.4c-2,0-3.6-0.6-4.9-1.8
			c-1.3-1.2-1.9-2.7-2-4.7v-15.9h4.8v14.2c0.1,1.2,0.4,2.2,1.1,2.9c0.6,0.7,1.6,1.1,2.9,1.1c1.2,0,2.3-0.4,3.2-1.1
			c1-0.7,1.7-1.7,2.3-2.9c0.6-1.2,0.9-2.6,0.9-4.2v-10H340.4z"/>
		<path d="M355.9,419.5c1-0.9,2.1-1.6,3.2-2.1s2.1-0.7,3-0.8l-0.2,4.8c-1.6-0.1-3,0.2-4.2,0.9s-2.3,1.7-3,2.9
			c-0.7,1.2-1.1,2.5-1.1,3.9v9.8h-4.8v-21.5h4.3l0.4,5.1C354.1,421.4,354.9,420.4,355.9,419.5z"/>
		<path d="M381.5,438.8c-1.3,0.5-2.7,0.7-4.1,0.7c-2.3,0-4.4-0.5-6.2-1.4c-1.8-0.9-3.2-2.3-4.2-4c-1-1.7-1.5-3.7-1.5-6
			c0-2.2,0.5-4.2,1.6-5.9c1-1.7,2.4-3,4.2-4c1.7-0.9,3.6-1.4,5.6-1.4c3.3,0,6,0.9,8.2,2.7l-2.4,3.2c-0.7-0.5-1.5-1-2.4-1.3
			c-0.9-0.4-1.9-0.5-2.9-0.5c-1.3,0-2.5,0.3-3.5,1c-1.1,0.6-1.9,1.5-2.5,2.6c-0.6,1.1-0.9,2.3-0.9,3.7s0.3,2.6,1,3.7
			c0.6,1.1,1.5,2,2.6,2.7c1.1,0.7,2.4,1,3.8,1c1.8,0,3.3-0.5,4.6-1.6l2.5,3C383.9,437.8,382.8,438.4,381.5,438.8z"/>
		<path d="M406.5,433.5l2.2,3.6c-1.1,0.8-2.4,1.4-3.7,1.8s-2.6,0.6-3.9,0.6c-2.4,0-4.5-0.5-6.3-1.5c-1.8-1-3.2-2.3-4.1-4.1
			c-1-1.7-1.5-3.7-1.5-5.9c0-2.1,0.5-4,1.6-5.8c1.1-1.8,2.5-3.1,4.3-4.2c1.8-1,3.8-1.5,6-1.5c2.8,0,5.2,0.8,7,2.5
			c1.9,1.6,3.2,3.9,3.9,6.9l-17,6c0.6,1.1,1.5,1.9,2.5,2.5c1.1,0.6,2.3,0.9,3.6,0.9C403,435.4,404.8,434.7,406.5,433.5z M396,422.5
			c-1.3,1.4-1.9,3.2-1.9,5.3c0,0.5,0,0.9,0.1,1.2l12.5-4.6c-0.5-1.2-1.3-2.1-2.2-2.9c-1-0.7-2.1-1.1-3.6-1.1
			C398.9,420.4,397.3,421.1,396,422.5z"/>
	</g>
</g>
<g>
	<path class="st0" d="M268.8,261.4c0,10.4-8.4,18.8-18.8,18.8c-1.6,0-3.2-0.2-4.7-0.6l-0.9,0.2c-2-11.3-7.4-21.9-15.7-30.2l-6.8-6.8
		h112.5V106.7h32.8v154.7H268.8z"/>
	<path class="st0" d="M193.7,242.6v18.8h-60.9V106.7h32.8v135.9H193.7z"/>
	<g>
		<path class="st24" d="M250,172.3v70.3h-28.1v-28.1c0-6.5-2.6-12.3-6.8-16.6c-4.3-4.2-10.1-6.8-16.6-6.8c-2.6,0-4.7,2.1-4.7,4.7
			v46.9h-28.1v-70.3H250z"/>
		<path class="st24" d="M250,167.6v-46.9c0-20.7,16.8-37.5,37.5-37.5h46.9v159.4H250V167.6z"/>
		<path class="st24" d="M212.5,83.3c20.7,0,37.5,16.8,37.5,37.5v51.6h-84.4V83.3H212.5z"/>
	</g>
	<path class="st25" d="M217.2,327v0.2v37.3h70.3V327H217.2z"/>
	<path class="st26" d="M244.4,279.7l0.9-0.2c1.5,0.4,3,0.6,4.7,0.6c10.4,0,18.8-8.4,18.8-18.8h37.5v14.8c0,2.6-0.6,5.2-1.6,7.6
		l-15.6,34.9c-1,2.4-1.6,5-1.6,7.6v0.7h-70.3c0-3.1-0.8-6.2-2.3-9l-18.8-33.7c-1.5-2.8-2.3-6-2.3-9.1v-79.5c0-2.6,2.1-4.7,4.7-4.7
		c6.5,0,12.3,2.6,16.6,6.8c4.2,4.3,6.8,10.1,6.8,16.6v28.1l6.8,6.8C237,257.8,242.5,268.4,244.4,279.7z"/>
	<path class="st7" d="M292.2,359.8v-33.5c0-2,0.4-3.9,1.2-5.7l15.5-34.9c1.3-3,2-6.2,2-9.5v-10.1h60.9V102h-32.8V78.6h-51.6
		c-16.3,0-30.5,9.3-37.5,22.9c-7-13.6-21.2-22.9-37.5-22.9h-51.6V102h-32.8v164.1h60.9v9.2c0,4,1,7.9,2.9,11.4l18.7,33.7
		c1.2,2.1,1.8,4.4,1.8,6.8v32.6H104.7v9.4h290.6v-9.4H292.2z M362.5,111.4v145.3h-98.4v4.7c0,7.8-6.3,14.1-14.1,14.1
		c-0.6,0-1.2-0.1-1.7-0.2c-2.5-10.4-7.6-20-15.2-27.9h106V111.4H362.5z M170.3,87.9h42.2c18.1,0,32.8,14.7,32.8,32.8v37.5h9.4v-37.5
		c0-18.1,14.7-32.8,32.8-32.8h42.2v150h-75v-70.3h-9.4v70.3h-18.8v-23.4c0-15.5-12.6-28.1-28.1-28.1c-5.2,0-9.4,4.2-9.4,9.4v42.2
		h-18.8V87.9z M137.5,256.7V111.4h23.4v135.9h28.1v9.4H137.5z M200.2,282.1c-1.2-2.1-1.8-4.4-1.8-6.8v-79.5
		c10.3,0,18.8,8.4,18.8,18.8v30.1l8.2,8.2c9.8,9.8,15.2,22.8,15.2,36.7h9.4c0-1.6-0.1-3.1-0.2-4.7c0.1,0,0.2,0,0.2,0
		c11.3,0,20.8-8.1,23-18.8h28.6v10.1c0,2-0.4,3.9-1.2,5.7l-15.5,34.9c-0.8,1.8-1.3,3.6-1.6,5.5h-61.9c-0.5-2.3-1.3-4.5-2.4-6.5
		L200.2,282.1z M221.9,350.4h42.2v-9.4h-42.2v-9.4h60.9v9.4h-9.4v9.4h9.4v9.4h-60.9V350.4z"/>
	<path class="st7" d="M287.5,200.4h9.4v9.4h-9.4V200.4z"/>
	<path class="st7" d="M306.3,200.4h9.4v9.4h-9.4V200.4z"/>
	<path class="st7" d="M268.8,200.4h9.4v9.4h-9.4V200.4z"/>
	<path class="st7" d="M264.1,219.2h56.3v9.4h-56.3V219.2z"/>
	<path class="st7" d="M264.1,181.7h56.3v9.4h-56.3V181.7z"/>
	<path class="st7" d="M264.1,148.9h56.3v9.4h-56.3V148.9z"/>
	<path class="st7" d="M264.1,130.1h56.3v9.4h-56.3V130.1z"/>
	<path class="st7" d="M264.1,111.4h56.3v9.4h-56.3V111.4z"/>
	<path class="st7" d="M203.1,130.1h9.4v9.4h-9.4V130.1z"/>
	<path class="st7" d="M221.9,130.1h9.4v9.4h-9.4V130.1z"/>
	<path class="st7" d="M184.4,130.1h9.4v9.4h-9.4V130.1z"/>
	<path class="st7" d="M179.7,111.4h56.3v9.4h-56.3V111.4z"/>
	<path class="st7" d="M179.7,148.9h56.3v9.4h-56.3V148.9z"/>
	<path class="st7" d="M179.7,167.6h56.3v9.4h-56.3V167.6z"/>
</g>
</svg>
