<?xml version="1.0" encoding="utf-8"?>
<!-- Generator: Adobe Illustrator 23.0.1, SVG Export Plug-In . SVG Version: 6.00 Build 0)  -->
<svg version="1.1" id="Layer_1" xmlns="http://www.w3.org/2000/svg" xmlns:xlink="http://www.w3.org/1999/xlink" x="0px" y="0px"
	 viewBox="0 0 500 500" style="enable-background:new 0 0 500 500;" xml:space="preserve">
<style type="text/css">
	.st0{fill:#8CB63E;stroke:#130D0E;stroke-width:8;stroke-linecap:round;stroke-miterlimit:10;stroke-dasharray:970,20;}
	.st1{fill:#6B8538;}
	.st2{fill:#98C9E8;}
	.st3{fill:#6AAEE3;}
	.st4{fill:#B1C966;}
	.st5{fill:#90B83B;}
	.st6{fill:#070809;}
	.st7{fill:#08090A;}
	.st8{fill:#8CB63E;}
	.st9{fill:none;stroke:#130D0E;stroke-width:8;stroke-linecap:round;stroke-miterlimit:10;}
	.st10{fill:#CCE5FA;stroke:#0F0C0D;stroke-width:8;stroke-miterlimit:10;}
	.st11{fill:#85AFCC;}
	.st12{fill:#797681;}
	.st13{fill:#C6C5CA;}
	.st14{fill:#659AD4;}
	.st15{fill:#457ABC;}
	.st16{fill:#0E9699;}
	.st17{fill:#C93E5A;}
	.st18{fill:#C52733;}
	.st19{fill:none;stroke:#070809;stroke-width:11;stroke-miterlimit:10;}
	.st20{fill:#877BB5;}
	.st21{fill:#F0D3BE;}
	.st22{fill:#EAC1AC;}
	.st23{fill:#7A9B3C;stroke:#130D0E;stroke-width:8;stroke-linecap:round;stroke-miterlimit:10;stroke-dasharray:970,20;}
	.st24{fill:#E7E9ED;}
	.st25{fill:#F3D374;}
	.st26{fill:#F0D0B5;}
</style>
<g>
	<path class="st14" d="M399.9,218.2C399.9,301,332.8,368,250,368S100.1,301,100.1,218.2S167.2,68.3,250,68.3
		S399.9,135.4,399.9,218.2z"/>
	<path class="st15" d="M399.9,218.2c0,61.9-38.1,117.5-95.8,139.8c-57.8,22.3-123.3,6.8-164.9-39c59.2,53.3,149.9,51,206.3-5.4
		s58.7-147,5.4-206.3C382.1,135.6,399.9,175.9,399.9,218.2z"/>
	<path class="st0" d="M402.5,218.2c0,2.7-0.1,5.4-0.2,8l-20.8-23.8L344.7,255l-36.8-31.6l15.8-31.6l-31.6,5.3l-27.6,23.6
		c-4.6-1.7-9.6-2.6-14.5-2.6c-23.2,0-42.1,18.8-42.1,42.1c0,23.2,42.1,63.1,42.1,63.1c10.8-10.5,20.7-21.8,29.5-34l7.3,18.2
		l-42.1,36.8l-42.1-26.3l-26.3-57.8l36.8-57.8l-15.8-21l89.4-57.8l-68.4-21l-12.2-30.4c39.7-11.8,82.5-7,118.6,13.3
		c-4.3,6.7-6.5,14.5-6.5,22.5c0,23.2,42.1,63.1,42.1,63.1c8.3-8.1,16.2-16.7,23.4-25.8C396.1,167.5,402.5,192.6,402.5,218.2z"/>
	<path class="st16" d="M276.3,297.1l-8.8,7.7c2.6-3.1,5.4-6.4,8-9.9L276.3,297.1z"/>
	<path class="st16" d="M373.3,134.5c2.6,4.8,5,9.7,7,14.8c-6.3,7.5-12.9,14.7-19.9,21.6c0,0-4.4-4.2-10.4-10.6
		C358.3,152.2,366.1,143.6,373.3,134.5z"/>
	<path class="st14" d="M402.5,107.8c0,10.7-9,25-18.7,37.3c-7.2,9.1-15.1,17.7-23.4,25.8c0,0-42.1-39.9-42.1-63.1
		c0-8,2.2-15.7,6.5-22.5c10-15.8,29.3-23.1,47.2-17.9C390.1,72.6,402.5,89,402.5,107.8z"/>
	<path class="st17" d="M381.5,107.8c0,11.6-9.4,21-21,21c-11.6,0-21-9.4-21-21s9.4-21,21-21C372,86.7,381.5,96.1,381.5,107.8z"/>
	<path class="st17" d="M292.1,260.2c0,8.4-5.5,19-12.6,29.1c-8.8,12.2-18.7,23.6-29.5,34c0,0-42.1-39.9-42.1-63.1
		c0-23.2,18.8-42.1,42.1-42.1c5,0,9.9,0.9,14.5,2.6C281.1,226.8,292.1,242.6,292.1,260.2z"/>
	<path class="st14" d="M271,260.2c0,11.6-9.4,21-21,21c-11.6,0-21-9.4-21-21c0-11.6,9.4-21,21-21C261.6,239.2,271,248.6,271,260.2z"
		/>
	<path class="st0" d="M172.2,87l30.5,52.3L181,155.1c0.4-1.7,0.6-3.5,0.6-5.3c0-21.3-15.9-39.3-37.1-41.8
		C152.9,100,162.2,93,172.2,87z"/>
	<path class="st17" d="M181.6,149.8c0,1.8-0.2,3.5-0.6,5.3c-2.7,12.1-13.7,27.2-23.6,38.9c-9.4,10.9-17.8,19-17.8,19
		c-13.1-12.6-24.7-26.6-34.6-41.9c-4.2-6.3-6.8-13.6-7.5-21.2c0-23.2,18.8-42.1,42.1-42.1c1.7,0,3.3,0.1,5,0.3
		C165.7,110.6,181.7,128.5,181.6,149.8z"/>
	<path class="st18" d="M381.5,107.8c0,9.9-6.9,18.5-16.6,20.6c-9.7,2.1-19.5-2.9-23.6-11.9c2.7,1.2,5.6,1.9,8.6,1.9
		c11.6,0,21-9.4,21-21c0-3-0.6-5.9-1.9-8.6C376.6,92,381.5,99.5,381.5,107.8z"/>
	<path class="st18" d="M292.1,260.2c0,8.4-5.5,19-12.6,29.1c-8.8,12.2-18.7,23.6-29.5,34c0,0-4.4-4.2-10.4-10.6
		c10.8-10.4,20.6-21.8,29.4-33.9c7-10.1,12.6-20.7,12.6-29.1c0-8.6-2.6-16.9-7.5-24C285.4,233.6,292.1,246.5,292.1,260.2z"/>
	<path class="st18" d="M181.6,149.8c0,1.8-0.2,3.5-0.6,5.3c-2.7,12.1-13.7,27.2-23.6,38.9c-9.4,10.9-17.8,19-17.8,19
		s-4.4-4.2-10.4-10.6c0.9-0.9,8.9-8.6,17.7-18.9c9.9-11.7,20.9-26.7,23.6-38.9c0.4-1.7,0.6-3.5,0.6-5.3c0-8.6-2.6-17-7.6-24.1
		C174.9,123.1,181.6,136,181.6,149.8z"/>
	<path class="st0" d="M165.9,202.4l-5.3,42.1l-36.8,21l-5.4,29.8c-13.7-23.4-20.9-50-20.9-77.1c0-16,2.5-31.9,7.5-47.2
		c9.9,15.3,21.5,29.3,34.6,41.9c0,0,8.5-8,17.8-19L165.9,202.4z"/>
	<path class="st14" d="M160.6,149.8c0,11.6-9.4,21-21,21c-11.6,0-21-9.4-21-21c0-11.6,9.4-21,21-21
		C151.2,128.8,160.6,138.2,160.6,149.8z"/>
	<g>
		<path class="st15" d="M402.5,107.8c0,10.7-9,25-18.7,37.3c-7.2,9.1-15.1,17.7-23.4,25.8c0,0-4.4-4.2-10.4-10.6
			c8.3-8.1,16.1-16.7,23.3-25.7C383,122.3,392,108,392,97.2c0-8.6-2.6-17-7.6-24C395.8,81.1,402.5,94,402.5,107.8z"/>
		<path class="st15" d="M271,260.2c0,9.9-6.9,18.5-16.6,20.6c-9.7,2.1-19.5-2.9-23.6-11.9c2.7,1.2,5.6,1.9,8.6,1.9
			c11.6,0,21-9.4,21-21c0-3-0.6-5.9-1.9-8.6C266.2,244.5,271,252,271,260.2z"/>
		<path class="st15" d="M160.6,149.8c0,9.9-6.9,18.5-16.6,20.6c-9.7,2.1-19.5-2.9-23.6-11.9c2.7,1.2,5.6,1.9,8.6,1.9
			c11.6,0,21-9.4,21-21c0-3-0.6-5.9-1.9-8.6C155.7,134.1,160.6,141.6,160.6,149.8z"/>
	</g>
	<path class="st7" d="M360.4,134c14.5,0,26.3-11.8,26.3-26.3c0-14.5-11.8-26.3-26.3-26.3c-14.5,0-26.3,11.8-26.3,26.3
		C334.2,122.3,345.9,134,360.4,134z M360.4,92c8.7,0,15.8,7.1,15.8,15.8s-7.1,15.8-15.8,15.8c-8.7,0-15.8-7.1-15.8-15.8
		S351.7,92,360.4,92z"/>
	<path class="st7" d="M407.8,107.8c0-20.2-12.8-38.1-31.8-44.7c-19.1-6.6-40.2-0.4-52.7,15.5c-59.2-31.1-131.6-21.5-180.5,24.1
		c-1.1-0.1-2.1-0.2-3.2-0.2c-26.1,0-47.3,21.2-47.3,47.3c0.5,7.7,3,15.2,7.1,21.8c-4.7,15.1-7.1,30.7-7.1,46.5
		c0,65.5,40.3,124.1,101.5,147.5c61.2,23.3,130.4,6.5,174-42.3c43.6-48.8,52.5-119.5,22.3-177.6
		C399.4,133.3,407.8,119.1,407.8,107.8z M360.4,70.9c20.3,0,36.8,16.5,36.8,36.8c0,15.6-23.9,42.8-36.8,55.7
		c-12.9-12.9-36.8-40.2-36.8-55.7C323.6,87.4,340.1,71,360.4,70.9z M170.4,94.3l25.4,43.5l-9.2,6.7c-2.1-17.9-14.1-33.1-31-39.2
		C160.3,101.4,165.2,97.7,170.4,94.3z M139.6,113c20.3,0,36.8,16.5,36.8,36.8c0,15.6-23.9,42.8-36.8,55.7
		c-12.9-12.9-36.8-40.2-36.8-55.7C102.8,129.5,119.3,113,139.6,113z M106.9,183.5c8.7,11.9,18.4,23,29.1,33.2c2,1.9,5.2,1.9,7.2,0
		c1.6-1.5,7.5-7.2,14.5-15.1l2.6,2.6l-4.6,36.9l-34.5,19.7c-1.3,0.8-2.3,2.1-2.6,3.6l-2.6,14.5C102.4,249.1,99.2,215.5,106.9,183.5z
		 M250,365.4c-51.6,0-99.4-27.1-126.1-71.3l4.6-25.3l34.7-19.8c1.4-0.8,2.4-2.3,2.6-3.9l5.3-42.1c0.2-1.6-0.4-3.2-1.5-4.4l-5-5
		c9.2-10.4,16.3-22.4,21-35.4l20.2-14.7c2.2-1.6,2.8-4.6,1.4-6.9L179.4,89c7.6-4.2,15.6-7.7,23.8-10.4l10.4,25.9
		c0.6,1.5,1.8,2.6,3.3,3.1l57.6,17.7L194.6,177c-1.2,0.8-2.1,2.1-2.3,3.5c-0.3,1.4,0.1,2.9,1,4.1l13.6,18.1l-34.9,54.8
		c-1,1.5-1.1,3.4-0.3,5l26.3,57.8c0.4,0.9,1.1,1.7,2,2.3l42.1,26.3c2,1.2,4.5,1,6.3-0.5l42.1-36.8c1.7-1.5,2.2-3.8,1.4-5.9
		l-6.3-15.6c6.7-10.2,11.9-20.8,11.9-29.8c0-16.7-8.9-32.2-23.3-40.7l20.4-17.5l19.9-3.3l-11.2,22.3c-1.1,2.2-0.5,4.8,1.3,6.3
		l36.8,31.6c1,0.8,2.2,1.3,3.4,1.3c0.2,0,0.4,0,0.7,0c1.5-0.2,2.8-1,3.6-2.2l33-47.1l14.9,17.1C391.6,305.3,327.5,365.3,250,365.4z
		 M286.8,260.2c0,15.6-23.9,42.8-36.8,55.7c-12.9-12.9-36.8-40.2-36.8-55.7c0-20.3,16.5-36.8,36.8-36.8
		C270.3,223.4,286.8,239.9,286.8,260.2z M397,212.2l-11.6-13.3c-1.1-1.2-2.6-1.9-4.2-1.8c-1.6,0.1-3.1,0.9-4,2.2l-33.5,47.9
		l-29.3-25.1l13.9-27.9c0.9-1.8,0.7-3.9-0.5-5.5c-1.2-1.6-3.1-2.4-5.1-2.1l-31.6,5.3c-0.9,0.2-1.8,0.6-2.6,1.2l-25.3,21.7
		c-14.3-4.2-29.8-1.5-41.7,7.5c-11.9,8.9-19,23-18.9,37.9c0,24.8,39.2,62.7,43.7,66.9c2,1.9,5.2,1.9,7.2,0
		c8.8-8.4,17-17.5,24.5-27.1l2.4,6l-36.3,31.8l-37.4-23.4l-24.5-53.8l35.3-55.4c1.2-1.8,1.1-4.2-0.2-6L205,182.7l84.7-54.8
		c1.7-1.1,2.6-3.1,2.3-5.1c-0.3-2-1.7-3.7-3.7-4.3l-66-20.3l-9.1-22.6c35.1-9,72.2-4.8,104.4,11.9c-3,6.3-4.6,13.3-4.6,20.3
		c0,24.8,39.2,62.7,43.7,66.9c2,1.9,5.2,1.9,7.2,0c6.6-6.3,12.9-13,18.8-20C391.4,172.7,396.3,192.3,397,212.2z"/>
	<path class="st7" d="M223.7,260.2c0,14.5,11.8,26.3,26.3,26.3c14.5,0,26.3-11.8,26.3-26.3c0-14.5-11.8-26.3-26.3-26.3
		C235.5,234,223.7,245.7,223.7,260.2z M265.8,260.2c0,8.7-7.1,15.8-15.8,15.8s-15.8-7.1-15.8-15.8c0-8.7,7.1-15.8,15.8-15.8
		S265.8,251.5,265.8,260.2z"/>
	<path class="st7" d="M165.9,149.8c0-14.5-11.8-26.3-26.3-26.3c-14.5,0-26.3,11.8-26.3,26.3c0,14.5,11.8,26.3,26.3,26.3
		C154.1,176.1,165.8,164.3,165.9,149.8z M123.8,149.8c0-8.7,7.1-15.8,15.8-15.8c8.7,0,15.8,7.1,15.8,15.8s-7.1,15.8-15.8,15.8
		C130.9,165.6,123.8,158.5,123.8,149.8z"/>
</g>
<g>
	<g>
		<path d="M117.8,401.4V439h-5v-37.6H117.8z"/>
		<path d="M145.8,418.4c1.3,1.2,2,2.7,2,4.7V439h-4.9v-14.2c-0.1-1.2-0.4-2.2-1.1-2.9s-1.6-1.1-3-1.1c-1.9,0-3.5,0.8-4.7,2.3
			c-1.2,1.5-1.9,3.5-1.9,5.8V439h-4.8v-21.5h4.4l0.3,4.2c0.8-1.6,1.9-2.8,3.4-3.7c1.5-0.9,3.3-1.3,5.2-1.3
			C142.8,416.6,144.4,417.2,145.8,418.4z"/>
		<path d="M170.2,438.8c-1.3,0.5-2.7,0.7-4.1,0.7c-2.3,0-4.4-0.5-6.2-1.4c-1.8-0.9-3.2-2.3-4.2-4c-1-1.7-1.5-3.7-1.5-6
			c0-2.2,0.5-4.2,1.6-5.9c1-1.7,2.4-3,4.2-4c1.7-0.9,3.6-1.4,5.6-1.4c3.3,0,6,0.9,8.2,2.7l-2.4,3.2c-0.7-0.5-1.5-1-2.4-1.3
			c-0.9-0.4-1.9-0.5-2.9-0.5c-1.3,0-2.5,0.3-3.5,1c-1.1,0.6-1.9,1.5-2.5,2.6c-0.6,1.1-0.9,2.3-0.9,3.7s0.3,2.6,1,3.7
			c0.6,1.1,1.5,2,2.6,2.7c1.1,0.7,2.4,1,3.8,1c1.8,0,3.3-0.5,4.6-1.6l2.5,3C172.6,437.8,171.5,438.4,170.2,438.8z"/>
		<path d="M184.7,398.7V439h-4.8v-40.3H184.7z"/>
		<path d="M213.1,417.5V439h-4.4l-0.3-4.1c-0.7,1.5-1.9,2.6-3.4,3.6c-1.5,0.9-3.2,1.4-5.1,1.4c-2,0-3.6-0.6-4.9-1.8
			c-1.3-1.2-1.9-2.7-2-4.7v-15.9h4.8v14.2c0.1,1.2,0.4,2.2,1.1,2.9c0.6,0.7,1.6,1.1,2.9,1.1c1.2,0,2.3-0.4,3.2-1.1
			c1-0.7,1.7-1.7,2.3-2.9c0.6-1.2,0.9-2.6,0.9-4.2v-10H213.1z"/>
		<path d="M223.1,438.6c-1.4-0.6-2.6-1.4-3.5-2.4l2.1-2.8c0.9,0.8,1.8,1.5,2.7,1.9c1,0.5,1.9,0.7,2.8,0.7c1.1,0,2.1-0.2,2.8-0.7
			c0.7-0.5,1.1-1.1,1.1-2.1c0-0.7-0.2-1.3-0.7-1.8c-0.5-0.5-1-0.8-1.5-1c-0.6-0.2-1.5-0.5-2.9-0.9c-3.7-1.2-5.5-3.3-5.5-6.3
			c0-1.8,0.7-3.3,2-4.6c1.3-1.3,3.2-1.9,5.6-1.9c1.5,0,2.9,0.2,4.1,0.6c1.2,0.4,2.3,1,3.3,1.8l-1.9,3c-0.6-0.6-1.3-1.1-2.1-1.4
			c-0.8-0.3-1.7-0.5-2.4-0.6c-1,0-1.8,0.2-2.5,0.7c-0.7,0.5-1,1.1-1,1.9c0,0.7,0.2,1.2,0.7,1.6c0.5,0.4,0.9,0.7,1.4,0.9
			s1.4,0.5,2.9,1c1.8,0.6,3.1,1.4,4.1,2.3s1.5,2.2,1.5,3.8c0,2.1-0.7,3.8-2.2,5.1c-1.5,1.4-3.5,2-6.2,2
			C226,439.5,224.5,439.2,223.1,438.6z"/>
		<path d="M243.3,407.8c0.6-0.5,1.3-0.8,2-0.8c0.8,0,1.4,0.3,2,0.8c0.6,0.5,0.9,1.2,0.9,1.9c0,0.8-0.3,1.4-0.9,1.9
			c-0.6,0.5-1.2,0.8-2,0.8c-0.8,0-1.4-0.3-2-0.8c-0.6-0.5-0.9-1.2-0.9-1.9C242.4,409,242.7,408.3,243.3,407.8z M247.6,417.5V439
			h-4.8v-21.5H247.6z"/>
		<path d="M276.5,417.5L265,439.6h-0.3l-12-22.1h5.8l6.5,13.7l6-13.7H276.5z"/>
		<path d="M296.5,433.5l2.2,3.6c-1.1,0.8-2.4,1.4-3.7,1.8s-2.6,0.6-3.9,0.6c-2.4,0-4.5-0.5-6.3-1.5c-1.8-1-3.2-2.3-4.1-4.1
			c-1-1.7-1.5-3.7-1.5-5.9c0-2.1,0.5-4,1.6-5.8c1.1-1.8,2.5-3.1,4.3-4.2c1.8-1,3.8-1.5,6-1.5c2.8,0,5.2,0.8,7,2.5
			c1.9,1.6,3.2,3.9,3.9,6.9l-17,6c0.6,1.1,1.5,1.9,2.5,2.5c1.1,0.6,2.3,0.9,3.6,0.9C293,435.4,294.8,434.7,296.5,433.5z M286,422.5
			c-1.3,1.4-1.9,3.2-1.9,5.3c0,0.5,0,0.9,0.1,1.2l12.5-4.6c-0.5-1.2-1.3-2.1-2.2-2.9c-1-0.7-2.1-1.1-3.6-1.1
			C288.9,420.4,287.3,421.1,286,422.5z"/>
		<path d="M326.5,418.4c1.3,1.2,2,2.7,2,4.7V439h-4.9v-14.2c-0.1-1.2-0.4-2.2-1.1-2.9c-0.7-0.7-1.6-1.1-3-1.1
			c-1.9,0-3.5,0.8-4.7,2.3c-1.2,1.5-1.9,3.5-1.9,5.8V439h-4.8v-21.5h4.4l0.3,4.2c0.8-1.6,1.9-2.8,3.4-3.7c1.5-0.9,3.3-1.3,5.2-1.3
			C323.6,416.6,325.2,417.2,326.5,418.4z"/>
		<path d="M352.3,433.5l2.2,3.6c-1.1,0.8-2.4,1.4-3.7,1.8s-2.6,0.6-3.9,0.6c-2.4,0-4.5-0.5-6.3-1.5c-1.8-1-3.2-2.3-4.1-4.1
			c-1-1.7-1.5-3.7-1.5-5.9c0-2.1,0.5-4,1.6-5.8c1.1-1.8,2.5-3.1,4.3-4.2c1.8-1,3.8-1.5,6-1.5c2.8,0,5.2,0.8,7,2.5
			c1.9,1.6,3.2,3.9,3.9,6.9l-17,6c0.6,1.1,1.5,1.9,2.5,2.5c1.1,0.6,2.3,0.9,3.6,0.9C348.8,435.4,350.6,434.7,352.3,433.5z
			 M341.8,422.5c-1.3,1.4-1.9,3.2-1.9,5.3c0,0.5,0,0.9,0.1,1.2l12.5-4.6c-0.5-1.2-1.3-2.1-2.2-2.9c-1-0.7-2.1-1.1-3.6-1.1
			C344.7,420.4,343,421.1,341.8,422.5z"/>
		<path d="M365.5,438.6c-1.4-0.6-2.6-1.4-3.5-2.4l2.1-2.8c0.9,0.8,1.8,1.5,2.7,1.9c1,0.5,1.9,0.7,2.8,0.7c1.1,0,2.1-0.2,2.8-0.7
			c0.7-0.5,1.1-1.1,1.1-2.1c0-0.7-0.2-1.3-0.7-1.8c-0.5-0.5-1-0.8-1.5-1c-0.6-0.2-1.5-0.5-2.9-0.9c-3.7-1.2-5.5-3.3-5.5-6.3
			c0-1.8,0.7-3.3,2-4.6c1.3-1.3,3.2-1.9,5.6-1.9c1.5,0,2.9,0.2,4.1,0.6c1.2,0.4,2.3,1,3.3,1.8l-1.9,3c-0.6-0.6-1.3-1.1-2.1-1.4
			c-0.8-0.3-1.7-0.5-2.4-0.6c-1,0-1.8,0.2-2.5,0.7c-0.7,0.5-1,1.1-1,1.9c0,0.7,0.2,1.2,0.7,1.6s0.9,0.7,1.4,0.9s1.4,0.5,2.9,1
			c1.8,0.6,3.1,1.4,4.1,2.3c1,0.9,1.5,2.2,1.5,3.8c0,2.1-0.7,3.8-2.2,5.1c-1.5,1.4-3.5,2-6.2,2C368.4,439.5,366.9,439.2,365.5,438.6
			z"/>
		<path d="M386.7,438.6c-1.4-0.6-2.6-1.4-3.5-2.4l2.1-2.8c0.9,0.8,1.8,1.5,2.7,1.9c1,0.5,1.9,0.7,2.8,0.7c1.1,0,2.1-0.2,2.8-0.7
			c0.7-0.5,1.1-1.1,1.1-2.1c0-0.7-0.2-1.3-0.7-1.8c-0.5-0.5-1-0.8-1.5-1c-0.6-0.2-1.5-0.5-2.9-0.9c-3.7-1.2-5.5-3.3-5.5-6.3
			c0-1.8,0.7-3.3,2-4.6c1.3-1.3,3.2-1.9,5.6-1.9c1.5,0,2.9,0.2,4.1,0.6c1.2,0.4,2.3,1,3.3,1.8l-1.9,3c-0.6-0.6-1.3-1.1-2.1-1.4
			c-0.8-0.3-1.7-0.5-2.4-0.6c-1,0-1.8,0.2-2.5,0.7c-0.7,0.5-1,1.1-1,1.9c0,0.7,0.2,1.2,0.7,1.6s0.9,0.7,1.4,0.9s1.4,0.5,2.9,1
			c1.8,0.6,3.1,1.4,4.1,2.3c1,0.9,1.5,2.2,1.5,3.8c0,2.1-0.7,3.8-2.2,5.1c-1.5,1.4-3.5,2-6.2,2C389.7,439.5,388.1,439.2,386.7,438.6
			z"/>
	</g>
</g>
</svg>
