<?xml version="1.0" encoding="utf-8"?>
<!-- Generator: Adobe Illustrator 23.0.1, SVG Export Plug-In . SVG Version: 6.00 Build 0)  -->
<svg version="1.1" id="Layer_1" xmlns="http://www.w3.org/2000/svg" xmlns:xlink="http://www.w3.org/1999/xlink" x="0px" y="0px"
	 viewBox="0 0 500 500" style="enable-background:new 0 0 500 500;" xml:space="preserve">
<style type="text/css">
	.st0{fill:#8CB63E;stroke:#130D0E;stroke-width:8;stroke-linecap:round;stroke-miterlimit:10;stroke-dasharray:970,20;}
	.st1{fill:#6B8538;}
	.st2{fill:#98C9E8;}
	.st3{fill:#6AAEE3;}
	.st4{fill:#B1C966;}
	.st5{fill:#90B83B;}
	.st6{fill:#070809;}
	.st7{fill:#08090A;}
	.st8{fill:#8CB63E;}
	.st9{fill:none;stroke:#130D0E;stroke-width:8;stroke-linecap:round;stroke-miterlimit:10;}
	.st10{fill:#CCE5FA;stroke:#0F0C0D;stroke-width:8;stroke-miterlimit:10;}
	.st11{fill:#85AFCC;}
	.st12{fill:#797681;}
	.st13{fill:#C6C5CA;}
	.st14{fill:#659AD4;}
	.st15{fill:#457ABC;}
	.st16{fill:#0E9699;}
	.st17{fill:#C93E5A;}
	.st18{fill:#C52733;}
	.st19{fill:none;stroke:#070809;stroke-width:11;stroke-miterlimit:10;}
	.st20{fill:#877BB5;}
	.st21{fill:#F0D3BE;}
	.st22{fill:#EAC1AC;}
	.st23{fill:#7A9B3C;stroke:#130D0E;stroke-width:8;stroke-linecap:round;stroke-miterlimit:10;stroke-dasharray:970,20;}
	.st24{fill:#E7E9ED;}
	.st25{fill:#F3D374;}
	.st26{fill:#F0D0B5;}
</style>
<g>
	<g>
		<path d="M164.2,406.4c-1.5-0.5-3-0.7-4.3-0.7c-2,0-3.7,0.5-4.9,1.4s-1.8,2.2-1.8,3.8c0,1.6,0.7,2.8,2.1,3.8c1.4,1,3.4,2,6,2.9
			c1.9,0.7,3.6,1.4,4.9,2.3c1.3,0.8,2.4,1.9,3.3,3.4c0.9,1.4,1.3,3.3,1.3,5.5c0,2-0.5,3.8-1.5,5.5c-1,1.6-2.4,2.9-4.3,3.8
			c-1.9,0.9-4,1.4-6.5,1.4c-2.3,0-4.6-0.4-6.7-1.1c-2.1-0.7-4-1.7-5.7-2.8l2.2-4c1.3,1,2.8,1.8,4.6,2.5c1.8,0.7,3.5,1,5,1
			c2,0,3.8-0.5,5.3-1.6c1.5-1,2.3-2.6,2.3-4.6c0-1.7-0.6-3.1-1.9-4.1c-1.3-1-3-2-5.3-2.9c-2.1-0.8-3.9-1.6-5.3-2.3
			c-1.4-0.8-2.6-1.8-3.6-3.1c-1-1.3-1.5-3-1.5-5c0-2.9,1-5.3,3.1-7.1s4.7-2.8,8-2.9c4.1,0,7.8,1,11.3,3l-1.9,3.9
			C167.1,407.4,165.7,406.8,164.2,406.4z"/>
		<path d="M178.6,407.8c0.6-0.5,1.3-0.8,2-0.8c0.8,0,1.4,0.3,2,0.8c0.6,0.5,0.9,1.2,0.9,1.9c0,0.8-0.3,1.4-0.9,1.9
			c-0.6,0.5-1.2,0.8-2,0.8c-0.8,0-1.4-0.3-2-0.8c-0.6-0.5-0.9-1.2-0.9-1.9C177.7,409,178,408.3,178.6,407.8z M182.9,417.5V439h-4.8
			v-21.5H182.9z"/>
		<path d="M223.9,418.4c1.2,1.2,1.9,2.7,1.9,4.7v16H221v-14.2c-0.1-2.5-1.2-3.9-3.4-4c-1.2,0-2.4,0.4-3.4,1.1
			c-1,0.7-1.8,1.7-2.3,2.9c-0.6,1.2-0.8,2.5-0.9,3.9V439h-4.9v-14.2c-0.1-2.5-1.3-3.9-3.5-4c-1.2,0-2.3,0.4-3.3,1.1
			c-1,0.7-1.8,1.7-2.3,3c-0.6,1.2-0.8,2.5-0.8,3.9V439h-4.8v-21.5h4.4l0.4,4.1c0.8-1.6,2-2.8,3.4-3.6c1.4-0.9,3.1-1.3,4.9-1.3
			c1.7,0,3.2,0.4,4.4,1.2c1.2,0.8,1.9,1.9,2.3,3.4c0.9-1.4,2-2.5,3.4-3.4c1.4-0.8,2.9-1.2,4.5-1.2
			C221,416.6,222.7,417.2,223.9,418.4z"/>
		<path d="M253.3,418.1c1.6,1,2.9,2.3,3.8,4.1c0.9,1.8,1.4,3.8,1.4,6.1c0,2.3-0.5,4.2-1.5,6c-1,1.7-2.4,3-4.2,4
			c-1.8,0.9-3.7,1.4-5.9,1.4c-1.6,0-3-0.3-4.5-1s-2.6-1.6-3.4-2.7v13.6h-4.8v-32.2h4.2l0.4,3.6c1.1-1.2,2.4-2.3,4-3
			c1.5-0.8,3.2-1.1,5-1.1C249.9,416.6,251.7,417.1,253.3,418.1z M249.8,434.7c1.2-0.6,2.1-1.5,2.8-2.7c0.7-1.1,1-2.4,1-3.8
			c0-1.4-0.3-2.7-1-3.8c-0.6-1.1-1.5-2-2.6-2.7c-1.1-0.7-2.3-1-3.7-1c-1.8,0-3.4,0.5-4.7,1.5c-1.3,1-2.2,2.4-2.6,4.1v3.6
			c0.3,1.7,1.1,3,2.4,4.1c1.3,1.1,2.8,1.6,4.6,1.6C247.4,435.6,248.6,435.3,249.8,434.7z"/>
		<path d="M269.9,398.7V439H265v-40.3H269.9z"/>
		<path d="M278.8,407.8c0.6-0.5,1.3-0.8,2-0.8c0.8,0,1.4,0.3,2,0.8c0.6,0.5,0.9,1.2,0.9,1.9c0,0.8-0.3,1.4-0.9,1.9
			c-0.6,0.5-1.2,0.8-2,0.8c-0.8,0-1.4-0.3-2-0.8c-0.6-0.5-0.9-1.2-0.9-1.9C277.9,409,278.2,408.3,278.8,407.8z M283.1,417.5V439
			h-4.8v-21.5H283.1z"/>
		<path d="M305.6,438.8c-1.3,0.5-2.7,0.7-4.1,0.7c-2.3,0-4.4-0.5-6.2-1.4s-3.2-2.3-4.2-4c-1-1.7-1.5-3.7-1.5-6
			c0-2.2,0.5-4.2,1.6-5.9c1-1.7,2.4-3,4.2-4s3.6-1.4,5.6-1.4c3.3,0,6,0.9,8.2,2.7l-2.4,3.2c-0.7-0.5-1.5-1-2.4-1.3
			c-0.9-0.4-1.9-0.5-2.9-0.5c-1.3,0-2.5,0.3-3.5,1c-1.1,0.6-1.9,1.5-2.5,2.6c-0.6,1.1-0.9,2.3-0.9,3.7s0.3,2.6,1,3.7
			c0.6,1.1,1.5,2,2.6,2.7c1.1,0.7,2.4,1,3.8,1c1.8,0,3.3-0.5,4.6-1.6l2.5,3C308.1,437.8,306.9,438.4,305.6,438.8z"/>
		<path d="M315.8,407.8c0.6-0.5,1.3-0.8,2-0.8c0.8,0,1.4,0.3,2,0.8c0.6,0.5,0.9,1.2,0.9,1.9c0,0.8-0.3,1.4-0.9,1.9
			c-0.6,0.5-1.2,0.8-2,0.8c-0.8,0-1.4-0.3-2-0.8c-0.6-0.5-0.9-1.2-0.9-1.9C314.9,409,315.2,408.3,315.8,407.8z M320.1,417.5V439
			h-4.8v-21.5H320.1z"/>
		<path d="M335.5,408v9.5h5.9v3.8h-5.9V439h-4.9v-17.6h-4v-3.8h4V408H335.5z"/>
		<path d="M367.7,417.5l-13.9,31.9H349l4.9-11.1l-10-20.8h5.5l7,15.3l6.8-15.3H367.7z"/>
	</g>
</g>
<g>
	<path class="st19" d="M404.9,186.5c-1.5-2.3-3.4-4.2-5.6-5.6c-4.7-3-10.5-3.9-15.9-2c-0.1,0.1-0.3,0.1-0.4,0c0,0-0.1,0-0.1-0.1
		c-0.1-0.1,0-0.3,0.1-0.4c0.2-0.1,0.4-0.3,0.6-0.4c8.6-5.7,11-17.4,5.3-26c-1.5-2.2-3.3-4-5.5-5.4c-3.2-2-6.9-3.1-10.6-3.1
		c-1.5,0-3.1,0.2-4.6,0.5c-0.2,0.1-0.4,0.1-0.5-0.1c0,0,0,0,0,0c-0.1-0.2-0.1-0.4,0.1-0.6c1.1-0.7,6.4-4.5,7.9-11.9
		c0.9-4.7,0.1-9.7-2.8-14c-1.5-2.2-3.3-4-5.4-5.4c-3.1-2-6.6-3-10.2-3c-2.3,0-4.5,0.4-6.7,1.2c-0.1,0-0.2,0-0.3-0.1
		c0-0.1,0-0.2,0.1-0.3c8.5-5.6,11.3-17.1,5.9-25.8c-5.6-9-17.5-11.5-26.3-5.7l-25.3,16.7c-13.9-7.4-29.1-12.6-45.2-15.2
		c-4.3-6.7-9.4-13-15.2-18.6l-9.9-9.5c-5.5-5.4-14-6.2-20.5-1.9c-4.8,3.2-7.3,8.4-7.3,13.7c0,3.1,0.9,6.3,2.7,9
		c1.6,2.4,3,4.8,4.2,7.3c-69,11.1-121.7,70.9-121.7,143c0,6.8,0.5,13.4,1.4,19.9c7.1,51.7,41.4,94.6,88.1,113.9
		c17.1,7.1,35.8,11,55.4,11c79.6,0,144.1-64.1,144.8-143.5l18.1-12C408.3,206.8,410.7,195.2,404.9,186.5z"/>
	<path class="st20" d="M381.6,223.2c0,80-64.8,144.8-144.8,144.8c-19.6,0-38.3-3.9-55.4-11c-46.6-19.3-81-62.3-88.1-113.9
		c-0.9-6.5-1.4-13.2-1.4-19.9c0-80,64.8-144.8,144.8-144.8C316.7,78.4,381.6,143.2,381.6,223.2z"/>
	<g>
		<path class="st21" d="M399.7,212.5L317,267.3c-5.9,3.9-13,5.5-20,4.3c-7-1.1-14.1,0.4-20.1,4.3l-11.1,7.3l-62-91.4l15.2-65.7
			c1.2-5.1,1.8-10.3,1.8-15.5c0-13.4-3.9-26.5-11.4-37.9c-1.8-2.8-2.7-5.9-2.7-9c0-5.3,2.6-10.5,7.3-13.7c6.4-4.3,14.9-3.5,20.5,1.9
			l9.9,9.5c11.3,10.9,20,24.2,25.4,39l5.3,14.4l55-36.3c8.8-5.8,20.7-3.3,26.3,5.7c5.4,8.7,2.6,20.1-5.9,25.8
			c-0.1,0.1-0.1,0.2-0.1,0.3c0,0.1,0.2,0.2,0.3,0.1c2.2-0.8,4.4-1.2,6.7-1.2c3.6,0,7.2,1,10.2,3c2.1,1.4,4,3.2,5.4,5.4
			c2.8,4.3,3.7,9.3,2.8,14c-1.5,7.4-6.8,11.2-7.9,11.9c-0.2,0.1-0.2,0.4-0.1,0.6c0,0,0,0,0,0c0.1,0.2,0.4,0.2,0.5,0.1
			c1.5-0.4,3-0.5,4.6-0.5c3.7,0,7.4,1.1,10.6,3.1c2.1,1.4,4,3.2,5.5,5.4c5.7,8.6,3.4,20.3-5.3,26c-0.2,0.1-0.4,0.3-0.6,0.4
			c-0.1,0.1-0.2,0.3-0.1,0.4c0,0,0,0.1,0.1,0.1c0.1,0.1,0.2,0.1,0.4,0c5.4-1.8,11.2-1,15.9,2c2.2,1.4,4.1,3.3,5.6,5.6
			C410.7,195.2,408.3,206.8,399.7,212.5z"/>
		<path class="st21" d="M404.9,186.5c-1.5-2.3-3.4-4.2-5.6-5.6c-4.7-3-10.5-3.9-15.9-2c-0.1,0.1-0.3,0.1-0.4,0c0,0-0.1,0-0.1-0.1
			c-0.1-0.1,0-0.3,0.1-0.4c0.2-0.1,0.4-0.3,0.6-0.4c8.6-5.7,11-17.4,5.3-26c-1.5-2.2-3.3-4-5.5-5.4c-3.2-2-6.9-3.1-10.6-3.1
			c-1.5,0-3.1,0.2-4.6,0.5c-0.2,0.1-0.4,0.1-0.5-0.1c0,0,0,0,0,0c-0.1-0.2-0.1-0.4,0.1-0.6c1.1-0.7,6.4-4.5,7.9-11.9
			c0.9-4.7,0.1-9.7-2.8-14c-1.5-2.2-3.3-4-5.4-5.4c-3.1-2-6.6-3-10.2-3c-2.3,0-4.5,0.4-6.7,1.2c-0.1,0-0.2,0-0.3-0.1
			c0-0.1,0-0.2,0.1-0.3c8.5-5.6,11.3-17.1,5.9-25.8c-5.6-9-17.5-11.5-26.3-5.7l-55,36.3l-5.3-14.4c-5.5-14.7-14.1-28-25.4-39
			l-9.9-9.5c-5.5-5.4-14-6.2-20.5-1.9c-4.8,3.2-7.3,8.4-7.3,13.7c0,3.1,0.9,6.3,2.7,9c7.5,11.3,11.4,24.5,11.4,37.9
			c0,5.2-0.6,10.3-1.8,15.5l-15.2,65.7l62,91.4l11.1-7.3c5.9-3.9,13.1-5.4,20.1-4.3c7,1.1,14.1-0.4,20-4.3l82.7-54.8
			C408.3,206.8,410.7,195.2,404.9,186.5z"/>
		<g>
			<path class="st22" d="M367.6,112.3L340.1,127c-3.9,2.1-8.7,1-11.4-2.6l21.7-14c0,0.1,0.2,0.2,0.3,0.1c2.2-0.8,4.4-1.2,6.7-1.2
				C361,109.2,364.6,110.3,367.6,112.3z"/>
			<path class="st22" d="M383.5,146.7l-26.9,14.4c-3.9,2.1-8.7,1-11.4-2.5l21.7-14l0.9-0.4c0.1,0.2,0.4,0.2,0.5,0.1
				c1.5-0.4,3-0.5,4.6-0.5C376.7,143.7,380.4,144.7,383.5,146.7z"/>
			<path class="st22" d="M399.3,181l-23.7,12.7c-3.9,2.1-8.7,1-11.4-2.6l18.8-12.2c0.1,0.1,0.2,0.1,0.4,0
				C388.8,177.1,394.6,177.9,399.3,181z"/>
		</g>
	</g>
</g>
<path class="st0" d="M266.6,300.6l-34.9,23.1l-50.4,33.4c-46.6-19.3-81-62.3-88.1-113.9l58.4-38.7l35.6-23.6
	c4.1-2.7,9.6-1.6,12.3,2.5l69.5,104.9C271.9,292.4,270.7,297.9,266.6,300.6z"/>
<path class="st23" d="M266.6,300.6l-34.9,23.1l-80-119.3l35.6-23.6c4.1-2.7,9.6-1.6,12.3,2.5l69.5,104.9
	C271.9,292.4,270.7,297.9,266.6,300.6z"/>
</svg>
