<?xml version="1.0" encoding="utf-8"?>
<!-- Generator: Adobe Illustrator 23.0.1, SVG Export Plug-In . SVG Version: 6.00 Build 0)  -->
<svg version="1.1" id="Layer_1" xmlns="http://www.w3.org/2000/svg" xmlns:xlink="http://www.w3.org/1999/xlink" x="0px" y="0px"
	 viewBox="0 0 500 500" style="enable-background:new 0 0 500 500;" xml:space="preserve">
<style type="text/css">
	.st0{fill:#8CB63E;stroke:#130D0E;stroke-width:8;stroke-linecap:round;stroke-miterlimit:10;stroke-dasharray:970,20;}
	.st1{fill:#6B8538;}
	.st2{fill:#98C9E8;}
	.st3{fill:#6AAEE3;}
	.st4{fill:#B1C966;}
	.st5{fill:#90B83B;}
	.st6{fill:#070809;}
	.st7{fill:#08090A;}
	.st8{fill:#8CB63E;}
	.st9{fill:none;stroke:#130D0E;stroke-width:8;stroke-linecap:round;stroke-miterlimit:10;}
	.st10{fill:#CCE5FA;stroke:#0F0C0D;stroke-width:8;stroke-miterlimit:10;}
	.st11{fill:#85AFCC;}
	.st12{fill:#797681;}
	.st13{fill:#C6C5CA;}
	.st14{fill:#659AD4;}
	.st15{fill:#457ABC;}
	.st16{fill:#0E9699;}
	.st17{fill:#C93E5A;}
	.st18{fill:#C52733;}
	.st19{fill:none;stroke:#070809;stroke-width:11;stroke-miterlimit:10;}
	.st20{fill:#877BB5;}
	.st21{fill:#F0D3BE;}
	.st22{fill:#EAC1AC;}
	.st23{fill:#7A9B3C;stroke:#130D0E;stroke-width:8;stroke-linecap:round;stroke-miterlimit:10;stroke-dasharray:970,20;}
	.st24{fill:#E7E9ED;}
	.st25{fill:#F3D374;}
	.st26{fill:#F0D0B5;}
</style>
<g>
	<path class="st0" d="M318.5,62.6c-28.7,0-54,17-68.5,42.6c-14.5-25.6-39.7-42.6-68.5-42.6c-45,0-81.4,41.6-81.4,93
		c0,132.2,149.9,205.9,149.9,205.9s149.9-70.9,149.9-205.9C399.9,104.2,363.4,62.6,318.5,62.6z"/>
	<path class="st1" d="M318.5,62.6c-4.5,0-9,0.4-13.3,1.2c38.7,7.2,68.2,45.5,68.2,91.7c0,110-99.6,177.5-136.4,198.7
		c8.1,4.8,13.1,7.2,13.1,7.2s149.9-70.9,149.9-205.9C399.9,104.2,363.4,62.6,318.5,62.6z"/>
	<path class="st2" d="M327,212.2c0,42.5-34.5,77-77,77s-77-34.5-77-77c0-42.5,34.5-77,77-77S327,169.7,327,212.2z"/>
	<path class="st3" d="M250,135.2c-4.5,0-9,0.4-13.3,1.1c36.2,6.3,63.7,37.8,63.7,75.8c0,38-27.5,69.5-63.7,75.8
		c4.3,0.7,8.7,1.1,13.3,1.1c42.5,0,77-34.5,77-77C327,169.7,292.5,135.2,250,135.2z"/>
	<path class="st4" d="M255.1,135.4c-0.2,0.1-0.2,0.1-0.2,0.1s-3,22.2-14.8,29.6c-11.9,7.4-20.8,19.3-14.1,32.6
		c6.7,13.3,21.5,8.2,35.2,6.3c13.7-1.9,3.3,40.4,11.5,50.8c8.2,10.4,31.1-10.4,28.9-23.7c-3.3-19.8-4.4-26.7,22.2-40.8h0.1
		C314.9,160,287.7,137.5,255.1,135.4z"/>
	<path class="st4" d="M198.9,247c-3.6-5.4,6.3-18.2,8.5-27.8c2.2-9.6-11.1-8.9-15.2-12.2c-4.1-3.3-9.6-17.8-13.7-21.1
		c0,0-0.6,0.6-1.4,1.7c-2.6,7.7-4,16-4,24.6c0,24.7,11.6,46.7,29.7,60.8c1.1-0.2,1.7-0.4,1.7-0.4S207.4,260,198.9,247z"/>
	<path class="st5" d="M300.4,211.4c1.8-7.2,7.9-12.9,23.3-21h0.1c-2.5-8.5-6.5-16.4-11.6-23.4c-13.1-17.9-33.7-30-57.2-31.5
		c-0.2,0.1-0.2,0.1-0.2,0.1s-0.3,2.4-1.2,5.9C280.9,153,300.1,179.9,300.4,211.4z"/>
	<path class="st5" d="M301.5,231.1c-0.7-4-1.2-7.4-1.5-10.6c-1.3,12.3-5.5,23.7-11.9,33.5C295.8,248.8,302.8,238.7,301.5,231.1z"/>
	<path class="st6" d="M318.5,58.2c-27.1,0-52.2,14.3-68.5,38.5c-16.2-24.3-41.3-38.5-68.5-38.5c-47.4,0-85.9,43.7-85.9,97.5
		c0,30.9,8.1,61.3,24,90.1c12.7,23,30.3,45.1,52.4,65.7c37.5,35,74.5,53.4,76,54.1c0.6,0.3,1.3,0.5,2,0.5c0.7,0,1.3-0.1,1.9-0.4
		c0.4-0.2,10.9-5.2,26.4-15c4.9-3.1,0-10.8-4.9-7.6c-11.2,7.1-19.8,11.6-23.5,13.5c-8.1-4.3-40.3-22.1-72.1-51.8
		c-21.4-20-38.4-41.3-50.5-63.4c-15.1-27.5-22.8-56.3-22.8-85.6c0-48.8,34.5-88.4,76.9-88.4c26.1,0,50.2,15.1,64.5,40.3
		c1.7,3,6.2,3,7.9,0c14.3-25.2,38.4-40.3,64.5-40.3c42.4,0,76.9,39.7,76.9,88.4c0,36.2-11.1,71.1-33.1,103.7
		c-16.4,24.3-38.4,47.1-65.6,67.5c-4.6,3.5,0.8,10.7,5.4,7.2c27.9-21.1,50.7-44.5,67.6-69.7c23-34.1,34.6-70.7,34.6-108.7
		C404.4,102,365.9,58.2,318.5,58.2z"/>
	<path class="st7" d="M185,163.2c-10.8,14.2-16.5,31.3-16.5,49.2c0,44.9,36.6,81.5,81.5,81.5s81.5-36.6,81.5-81.5
		c0-44.9-36.6-81.5-81.5-81.5c-16,0-31.4,4.6-44.7,13.3c-4.9,3.2,0.1,10.8,5,7.6c11.6-7.6,25.2-11.7,39.1-11.8
		c-1.7,7-5.4,17.5-11.8,21.5c-16.7,10.4-22.6,24.8-15.7,38.5c7.1,14.3,21.8,11.8,33.6,9.8c2.1-0.4,4.2-0.7,6.3-1c0.1,0,0.2,0,0.3,0
		c0,0,0,0,0,0c0.1,0.1,1.2,1,1.8,6.1c0.5,4.2,0.5,9.4,0.6,14.9c0,11.5,0.1,22.4,4.6,28.1c2.4,3,5.6,4.5,9.4,4.5
		c2.3,0,4.8-0.6,7.4-1.7c10.8-4.8,21.9-18.9,20-30.1c-1.5-9.2-2.5-15.2-0.4-19.9c1.8-4.2,6.5-8.3,15.3-13.3c1,4.9,1.6,9.9,1.6,15.1
		c0,40-32.5,72.5-72.5,72.5c-15.2,0-29.2-4.7-40.9-12.7c0.6-4.2,1.2-15.7-6.4-27.4c-0.6-1.6,2.4-8.1,4.1-11.6c2-4.2,4.1-8.6,5-12.8
		c2.5-10.8-7.7-13.8-12.5-15.2c-1.4-0.4-3.6-1.1-4.2-1.5c-1.4-1.1-3.9-5.8-5.7-9.2c-2.2-4-4.1-7.6-6.2-10.1
		c2.3-5.5,5.4-10.8,9.1-15.7C195.7,164,188.5,158.5,185,163.2z M297.2,206.9c-3.2,7.2-1.9,14.7-0.2,25.1c1,6.1-6.7,16.8-14.8,20.3
		c-3,1.3-5,1.3-6.1-0.1c-2.6-3.3-2.6-14.4-2.7-22.6c0-12.4-0.1-23-5.5-27.7c-2-1.8-4.6-2.5-7.5-2.1c-2.2,0.3-4.4,0.7-6.6,1
		c-13.8,2.4-20.2,2.6-24-4.9c-2.2-4.3-5.3-15.7,12.4-26.8c10.2-6.4,14.6-21.4,16.2-28.7c27.8,3.3,50.8,22.3,59.8,47.9
		C306.2,195,300.1,200.4,297.2,206.9z M181.4,198.8c2.8,5.2,5.2,9.7,8,11.9c2,1.6,4.6,2.4,7.4,3.2c6.9,2,6.7,2.8,6.3,4.5
		c-0.7,3.2-2.6,7.1-4.4,10.9c-3.6,7.7-7.1,14.9-3.5,20.4c3.7,5.7,5,11.3,5.3,15.4c-14-13.2-22.8-32-22.8-52.7c0-5.8,0.7-11.4,2-16.9
		C180.2,196.5,180.8,197.7,181.4,198.8z"/>
	<path class="st1" d="M347.8,148.5c13.2,11.3,21.8,27.8,25.3,49c0.4,2.2,2.3,3.8,4.5,3.8c2.7,0,4.9-2.6,4.5-5.3
		c-4.9-29.4-18.4-46-28.8-54.7c-11.5-9.6-21.9-12.1-22.3-12.2c-5.6-1.3-7.7,7.4-2.1,8.8C329,137.9,337.9,140.1,347.8,148.5z"/>
</g>
<g>
	<g>
		<path d="M124.8,406.4c-1.5-0.5-3-0.7-4.3-0.7c-2,0-3.7,0.5-4.9,1.4c-1.2,0.9-1.8,2.2-1.8,3.8c0,1.6,0.7,2.8,2.1,3.8
			c1.4,1,3.4,2,6,2.9c1.9,0.7,3.6,1.4,4.9,2.3c1.3,0.8,2.4,1.9,3.3,3.4c0.9,1.4,1.3,3.3,1.3,5.5c0,2-0.5,3.8-1.5,5.5
			c-1,1.6-2.4,2.9-4.3,3.8c-1.9,0.9-4,1.4-6.5,1.4c-2.3,0-4.6-0.4-6.7-1.1c-2.1-0.7-4-1.7-5.7-2.8l2.2-4c1.3,1,2.8,1.8,4.6,2.5
			c1.8,0.7,3.5,1,5,1c2,0,3.8-0.5,5.3-1.6c1.5-1,2.3-2.6,2.3-4.6c0-1.7-0.6-3.1-1.9-4.1c-1.3-1-3-2-5.3-2.9
			c-2.1-0.8-3.9-1.6-5.3-2.3c-1.4-0.8-2.6-1.8-3.6-3.1c-1-1.3-1.5-3-1.5-5c0-2.9,1-5.3,3.1-7.1c2.1-1.8,4.7-2.8,8-2.9
			c4.1,0,7.8,1,11.3,3l-1.9,3.9C127.7,407.4,126.3,406.8,124.8,406.4z"/>
		<path d="M158.7,417.5V439h-4.4l-0.3-4.1c-0.7,1.5-1.9,2.6-3.4,3.6c-1.5,0.9-3.2,1.4-5.1,1.4c-2,0-3.6-0.6-4.9-1.8
			c-1.3-1.2-1.9-2.7-2-4.7v-15.9h4.8v14.2c0.1,1.2,0.4,2.2,1.1,2.9c0.6,0.7,1.6,1.1,2.9,1.1c1.2,0,2.3-0.4,3.2-1.1
			c1-0.7,1.7-1.7,2.3-2.9c0.6-1.2,0.9-2.6,0.9-4.2v-10H158.7z"/>
		<path d="M168.7,438.6c-1.4-0.6-2.6-1.4-3.5-2.4l2.1-2.8c0.9,0.8,1.8,1.5,2.7,1.9c1,0.5,1.9,0.7,2.8,0.7c1.1,0,2.1-0.2,2.8-0.7
			c0.7-0.5,1.1-1.1,1.1-2.1c0-0.7-0.2-1.3-0.7-1.8c-0.5-0.5-1-0.8-1.5-1s-1.5-0.5-2.9-0.9c-3.7-1.2-5.5-3.3-5.5-6.3
			c0-1.8,0.7-3.3,2-4.6c1.3-1.3,3.2-1.9,5.6-1.9c1.5,0,2.9,0.2,4.1,0.6c1.2,0.4,2.3,1,3.3,1.8l-1.9,3c-0.6-0.6-1.3-1.1-2.1-1.4
			c-0.8-0.3-1.7-0.5-2.4-0.6c-1,0-1.8,0.2-2.5,0.7c-0.7,0.5-1,1.1-1,1.9c0,0.7,0.2,1.2,0.7,1.6c0.5,0.4,0.9,0.7,1.4,0.9
			c0.5,0.2,1.4,0.5,2.9,1c1.8,0.6,3.1,1.4,4.1,2.3c1,0.9,1.5,2.2,1.5,3.8c0,2.1-0.7,3.8-2.2,5.1c-1.5,1.4-3.5,2-6.2,2
			C171.6,439.5,170.1,439.2,168.7,438.6z"/>
		<path d="M195.3,408v9.5h5.9v3.8h-5.9V439h-4.9v-17.6h-4v-3.8h4V408H195.3z"/>
		<path d="M229.2,417.5V439h-4.8v-3.5c-0.8,1-1.9,1.9-3.3,2.8c-1.5,0.8-3.1,1.3-4.9,1.3c-2,0-3.9-0.4-5.5-1.3
			c-1.6-0.9-2.9-2.2-3.9-3.9c-1-1.7-1.4-3.7-1.4-6.1c0-2.4,0.5-4.4,1.5-6.2c1-1.7,2.3-3.1,4-4.1c1.7-1,3.5-1.4,5.6-1.4
			c1.8,0,3.4,0.4,4.8,1.2s2.4,1.8,3.3,3.1l0.4-3.4H229.2z M221.9,434c1.3-1,2.1-2.3,2.4-4v-4.3c-0.4-1.5-1.3-2.8-2.6-3.7
			c-1.3-1-2.8-1.4-4.5-1.4c-1.3,0-2.5,0.3-3.6,0.9c-1.1,0.6-2,1.5-2.6,2.6c-0.6,1.1-1,2.4-1,3.8c0,1.4,0.3,2.7,1,3.8
			c0.7,1.1,1.5,2.1,2.7,2.7c1.1,0.7,2.3,1,3.6,1C219.1,435.5,220.6,435,221.9,434z"/>
		<path d="M238.1,407.8c0.6-0.5,1.3-0.8,2-0.8c0.8,0,1.4,0.3,2,0.8c0.6,0.5,0.9,1.2,0.9,1.9c0,0.8-0.3,1.4-0.9,1.9s-1.2,0.8-2,0.8
			c-0.8,0-1.4-0.3-2-0.8c-0.6-0.5-0.9-1.2-0.9-1.9C237.2,409,237.5,408.3,238.1,407.8z M242.4,417.5V439h-4.8v-21.5H242.4z"/>
		<path d="M269.2,418.4c1.3,1.2,2,2.7,2,4.7V439h-4.9v-14.2c-0.1-1.2-0.4-2.2-1.1-2.9s-1.6-1.1-3-1.1c-1.9,0-3.5,0.8-4.7,2.3
			c-1.2,1.5-1.9,3.5-1.9,5.8V439h-4.8v-21.5h4.4l0.3,4.2c0.8-1.6,1.9-2.8,3.4-3.7c1.5-0.9,3.3-1.3,5.2-1.3
			C266.2,416.6,267.9,417.2,269.2,418.4z"/>
		<path d="M301.7,417.5V439h-4.8v-3.5c-0.8,1-1.9,1.9-3.3,2.8s-3.1,1.3-4.9,1.3c-2,0-3.9-0.4-5.5-1.3c-1.6-0.9-2.9-2.2-3.9-3.9
			c-1-1.7-1.4-3.7-1.4-6.1c0-2.4,0.5-4.4,1.5-6.2c1-1.7,2.3-3.1,4-4.1c1.7-1,3.5-1.4,5.6-1.4c1.8,0,3.4,0.4,4.8,1.2s2.4,1.8,3.3,3.1
			l0.4-3.4H301.7z M294.4,434c1.3-1,2.1-2.3,2.4-4v-4.3c-0.4-1.5-1.3-2.8-2.6-3.7c-1.3-1-2.8-1.4-4.5-1.4c-1.3,0-2.5,0.3-3.6,0.9
			c-1.1,0.6-2,1.5-2.6,2.6c-0.6,1.1-1,2.4-1,3.8c0,1.4,0.3,2.7,1,3.8c0.7,1.1,1.5,2.1,2.7,2.7c1.1,0.7,2.3,1,3.6,1
			C291.6,435.5,293.1,435,294.4,434z"/>
		<path d="M329.2,418c1.6,0.9,2.9,2.3,3.8,4c0.9,1.7,1.4,3.7,1.4,5.9c0,2.4-0.5,4.4-1.5,6.2c-1,1.8-2.4,3.1-4.1,4.1
			c-1.7,0.9-3.6,1.4-5.6,1.4c-1.8,0-3.4-0.3-4.8-1c-1.4-0.7-2.6-1.6-3.5-2.8v3.3h-4.8v-40.3h4.8v21.6c0.9-1.1,2.1-2.1,3.7-2.7
			c1.6-0.7,3.3-1,5.2-1C325.8,416.6,327.6,417.1,329.2,418z M327.4,433.2c1.4-1.4,2.1-3.2,2.1-5.4c0-1.4-0.3-2.6-1-3.8
			c-0.6-1.1-1.5-2-2.6-2.7c-1.1-0.7-2.3-1-3.7-1c-1.8,0-3.3,0.5-4.7,1.4s-2.2,2.2-2.6,3.8v4.4c0.4,1.6,1.3,2.8,2.6,3.8
			c1.3,1,2.9,1.5,4.7,1.5C324.3,435.4,326.1,434.6,327.4,433.2z"/>
		<path d="M341.4,407.8c0.6-0.5,1.3-0.8,2-0.8c0.8,0,1.4,0.3,2,0.8c0.6,0.5,0.9,1.2,0.9,1.9c0,0.8-0.3,1.4-0.9,1.9
			c-0.6,0.5-1.2,0.8-2,0.8c-0.8,0-1.4-0.3-2-0.8c-0.6-0.5-0.9-1.2-0.9-1.9C340.5,409,340.8,408.3,341.4,407.8z M345.7,417.5V439
			h-4.8v-21.5H345.7z"/>
		<path d="M359,398.7V439h-4.8v-40.3H359z"/>
		<path d="M367.9,407.8c0.6-0.5,1.3-0.8,2-0.8c0.8,0,1.4,0.3,2,0.8c0.6,0.5,0.9,1.2,0.9,1.9c0,0.8-0.3,1.4-0.9,1.9
			c-0.6,0.5-1.2,0.8-2,0.8c-0.8,0-1.4-0.3-2-0.8c-0.6-0.5-0.9-1.2-0.9-1.9C367.1,409,367.3,408.3,367.9,407.8z M372.2,417.5V439
			h-4.8v-21.5H372.2z"/>
		<path d="M387.6,408v9.5h5.9v3.8h-5.9V439h-4.9v-17.6h-4v-3.8h4V408H387.6z"/>
		<path d="M419.9,417.5L406,449.3h-4.8l4.9-11.1l-10-20.8h5.5l7,15.3l6.8-15.3H419.9z"/>
	</g>
</g>
</svg>
