<?xml version="1.0" encoding="utf-8"?>
<!-- Generator: Adobe Illustrator 23.0.1, SVG Export Plug-In . SVG Version: 6.00 Build 0)  -->
<svg version="1.1" id="Layer_1" xmlns="http://www.w3.org/2000/svg" xmlns:xlink="http://www.w3.org/1999/xlink" x="0px" y="0px"
	 viewBox="0 0 500 500" style="enable-background:new 0 0 500 500;" xml:space="preserve">
<style type="text/css">
	.st0{fill:#8CB63E;stroke:#130D0E;stroke-width:8;stroke-linecap:round;stroke-miterlimit:10;stroke-dasharray:970,20;}
	.st1{fill:#6B8538;}
	.st2{fill:#98C9E8;}
	.st3{fill:#6AAEE3;}
	.st4{fill:#B1C966;}
	.st5{fill:#90B83B;}
	.st6{fill:#070809;}
	.st7{fill:#08090A;}
	.st8{fill:#8CB63E;}
	.st9{fill:none;stroke:#130D0E;stroke-width:8;stroke-linecap:round;stroke-miterlimit:10;}
	.st10{fill:#CCE5FA;stroke:#0F0C0D;stroke-width:8;stroke-miterlimit:10;}
	.st11{fill:#85AFCC;}
	.st12{fill:#797681;}
	.st13{fill:#C6C5CA;}
	.st14{fill:#659AD4;}
	.st15{fill:#457ABC;}
	.st16{fill:#0E9699;}
	.st17{fill:#C93E5A;}
	.st18{fill:#C52733;}
	.st19{fill:none;stroke:#070809;stroke-width:11;stroke-miterlimit:10;}
	.st20{fill:#877BB5;}
	.st21{fill:#F0D3BE;}
	.st22{fill:#EAC1AC;}
	.st23{fill:#7A9B3C;stroke:#130D0E;stroke-width:8;stroke-linecap:round;stroke-miterlimit:10;stroke-dasharray:970,20;}
	.st24{fill:#E7E9ED;}
	.st25{fill:#F3D374;}
	.st26{fill:#F0D0B5;}
</style>
<g>
	<g>
		<path class="st8" d="M337.5,252.4l-122,0l-0.7,0l-0.4-3.2l-54.5,0c0,0,0,0,0,0l-14.1,83.6c0,13.3,25.7,24.8,62.4,29.8l0-0.1
			c0.4,0.1,0.8,0.1,1.3,0.2c12.4,1.7,26.1,2.6,40.5,2.6c55.9,0,101.2-14.2,101.2-31.6L337.5,252.4z"/>
		<path class="st9" d="M337.5,252.4l-122,0l-0.7,0l-0.4-3.2l-54.5,0c0,0,0,0,0,0l-14.1,83.6c0,13.3,25.7,24.8,62.4,29.8l0-0.1
			c0.4,0.1,0.8,0.1,1.3,0.2c12.4,1.7,26.1,2.6,40.5,2.6c55.9,0,101.2-14.2,101.2-31.6L337.5,252.4z"/>
	</g>
	<circle class="st10" cx="250" cy="174" r="117.4"/>
	<path class="st11" d="M256.5,74c-2.7,0-5.4,0.1-8,0.3c29.4,2.3,55.2,17.5,71.8,39.9c6.8,9.2-1.4,21.8-12.6,19.6
		c-3.3-0.6-6.7-0.9-10.2-0.8c-23.7,0.7-43.1,19.7-44.4,43.4c-1.4,26.4,19.6,48.3,45.8,48.3c0.1,0,0.3,0,0.4,0
		c11.4-0.1,17.1,13.8,8.7,21.6c-15.9,14.8-36.6,24.4-59.6,26.2c2.6,0.2,5.3,0.3,8,0.3c54.9,0,99.4-44.5,99.4-99.4S311.4,74,256.5,74
		z"/>
</g>
<g>
	<g>
		<path d="M143.2,401.4v4.8h-17.3v12H141v4.8h-15.1v16h-5v-37.6H143.2z"/>
		<path d="M169.5,417.5V439h-4.4l-0.3-4.1c-0.7,1.5-1.9,2.6-3.4,3.6c-1.5,0.9-3.2,1.4-5.1,1.4c-2,0-3.6-0.6-4.9-1.8
			c-1.3-1.2-1.9-2.7-2-4.7v-15.9h4.8v14.2c0.1,1.2,0.4,2.2,1.1,2.9c0.6,0.7,1.6,1.1,2.9,1.1c1.2,0,2.3-0.4,3.2-1.1
			c1-0.7,1.7-1.7,2.3-2.9c0.6-1.2,0.9-2.6,0.9-4.2v-10H169.5z"/>
		<path d="M184.8,408v9.5h5.9v3.8h-5.9V439H180v-17.6h-4v-3.8h4V408H184.8z"/>
		<path d="M216.6,417.5V439h-4.4l-0.3-4.1c-0.7,1.5-1.9,2.6-3.4,3.6c-1.5,0.9-3.2,1.4-5.1,1.4c-2,0-3.6-0.6-4.9-1.8
			c-1.3-1.2-1.9-2.7-2-4.7v-15.9h4.8v14.2c0.1,1.2,0.4,2.2,1.1,2.9c0.6,0.7,1.6,1.1,2.9,1.1c1.2,0,2.3-0.4,3.2-1.1
			c1-0.7,1.7-1.7,2.3-2.9c0.6-1.2,0.9-2.6,0.9-4.2v-10H216.6z"/>
		<path d="M232.1,419.5c1-0.9,2.1-1.6,3.2-2.1s2.1-0.7,3-0.8l-0.2,4.8c-1.6-0.1-3,0.2-4.2,0.9c-1.3,0.7-2.3,1.7-3,2.9
			c-0.7,1.2-1.1,2.5-1.1,3.9v9.8H225v-21.5h4.3l0.4,5.1C230.3,421.4,231,420.4,232.1,419.5z"/>
		<path d="M259,433.5l2.2,3.6c-1.1,0.8-2.4,1.4-3.7,1.8c-1.3,0.4-2.6,0.6-3.9,0.6c-2.4,0-4.5-0.5-6.3-1.5c-1.8-1-3.2-2.3-4.1-4.1
			c-1-1.7-1.5-3.7-1.5-5.9c0-2.1,0.5-4,1.6-5.8s2.5-3.1,4.3-4.2c1.8-1,3.8-1.5,6-1.5c2.8,0,5.2,0.8,7,2.5c1.9,1.6,3.2,3.9,3.9,6.9
			l-17,6c0.6,1.1,1.5,1.9,2.5,2.5c1.1,0.6,2.3,0.9,3.6,0.9C255.5,435.4,257.3,434.7,259,433.5z M248.5,422.5
			c-1.3,1.4-1.9,3.2-1.9,5.3c0,0.5,0,0.9,0.1,1.2l12.5-4.6c-0.5-1.2-1.3-2.1-2.2-2.9c-1-0.7-2.1-1.1-3.6-1.1
			C251.4,420.4,249.7,421.1,248.5,422.5z"/>
		<path d="M308,404.5c2.3,2,3.5,4.9,3.5,8.6c0,2.1-0.4,4.1-1.3,5.9c-0.8,1.8-2.2,3.3-4.1,4.5s-4.3,1.7-7.1,1.7h-5.6V439h-5v-37.6
			h10.1C302.5,401.4,305.6,402.4,308,404.5z M303.3,419.1c1.1-0.8,1.9-1.7,2.4-2.8c0.5-1.1,0.7-2.2,0.7-3.2c0-1.8-0.6-3.4-1.8-4.8
			c-1.2-1.4-3-2.1-5.5-2.1h-5.8v14h5.6C300.7,420.3,302.2,419.9,303.3,419.1z"/>
		<path d="M325.1,419.5c1-0.9,2.1-1.6,3.2-2.1s2.1-0.7,3-0.8l-0.2,4.8c-1.6-0.1-3,0.2-4.2,0.9s-2.3,1.7-3,2.9
			c-0.7,1.2-1.1,2.5-1.1,3.9v9.8H318v-21.5h4.3l0.4,5.1C323.2,421.4,324,420.4,325.1,419.5z"/>
		<path d="M336.3,422.2c1-1.8,2.4-3.1,4.3-4.1c1.8-1,3.9-1.5,6.2-1.5s4.3,0.5,6.1,1.5c1.8,1,3.2,2.4,4.2,4.1c1,1.7,1.5,3.7,1.5,5.8
			c0,2.1-0.5,4.1-1.5,5.8c-1,1.8-2.4,3.1-4.2,4.1c-1.8,1-3.9,1.5-6.2,1.5c-2.3,0-4.3-0.5-6.1-1.4c-1.8-1-3.2-2.3-4.2-4
			s-1.5-3.7-1.5-6C334.7,425.9,335.3,424,336.3,422.2z M340.5,431.8c0.6,1.1,1.4,2,2.5,2.7c1.1,0.7,2.2,1,3.5,1c2,0,3.7-0.7,5-2.1
			c1.3-1.4,2-3.2,2-5.3s-0.7-3.9-2-5.3c-1.3-1.4-3-2.2-5-2.2c-1.3,0-2.5,0.3-3.5,1c-1,0.7-1.9,1.6-2.5,2.7c-0.6,1.1-0.9,2.4-0.9,3.7
			C339.6,429.4,339.9,430.7,340.5,431.8z"/>
		<path d="M364.6,422.2c1-1.8,2.4-3.1,4.3-4.1c1.8-1,3.9-1.5,6.2-1.5s4.3,0.5,6.1,1.5c1.8,1,3.2,2.4,4.2,4.1c1,1.7,1.5,3.7,1.5,5.8
			c0,2.1-0.5,4.1-1.5,5.8c-1,1.8-2.4,3.1-4.2,4.1c-1.8,1-3.9,1.5-6.2,1.5c-2.3,0-4.3-0.5-6.1-1.4c-1.8-1-3.2-2.3-4.2-4
			s-1.5-3.7-1.5-6C363.1,425.9,363.6,424,364.6,422.2z M368.9,431.8c0.6,1.1,1.4,2,2.5,2.7c1.1,0.7,2.2,1,3.5,1c2,0,3.7-0.7,5-2.1
			c1.3-1.4,2-3.2,2-5.3s-0.7-3.9-2-5.3c-1.3-1.4-3-2.2-5-2.2c-1.3,0-2.5,0.3-3.5,1c-1,0.7-1.9,1.6-2.5,2.7c-0.6,1.1-0.9,2.4-0.9,3.7
			C368,429.4,368.3,430.7,368.9,431.8z"/>
		<path d="M395,421.8h-3.7v-4.4h3.7v-9c0-3.1,0.7-5.5,2.1-7.2c1.4-1.7,3.5-2.5,6.2-2.5c0.8,0,1.6,0.1,2.4,0.3s1.6,0.5,2.3,1
			l-2.1,3.5c-0.5-0.6-1.2-0.8-2.2-0.8c-1.3,0-2.3,0.5-3,1.4c-0.7,0.9-1,2.4-1,4.4v9h6.9v4.4h-6.9V439H395V421.8z"/>
	</g>
</g>
</svg>
