<?xml version="1.0" encoding="utf-8"?>
<!-- Generator: Adobe Illustrator 23.0.1, SVG Export Plug-In . SVG Version: 6.00 Build 0)  -->
<svg version="1.1" id="Layer_1" xmlns="http://www.w3.org/2000/svg" xmlns:xlink="http://www.w3.org/1999/xlink" x="0px" y="0px"
	 viewBox="0 0 500 500" style="enable-background:new 0 0 500 500;" xml:space="preserve">
<style type="text/css">
	.st0{fill:#8CB63E;stroke:#130D0E;stroke-width:8;stroke-linecap:round;stroke-miterlimit:10;stroke-dasharray:970,20;}
	.st1{fill:#6B8538;}
	.st2{fill:#98C9E8;}
	.st3{fill:#6AAEE3;}
	.st4{fill:#B1C966;}
	.st5{fill:#90B83B;}
	.st6{fill:#070809;}
	.st7{fill:#08090A;}
	.st8{fill:#8CB63E;}
	.st9{fill:none;stroke:#130D0E;stroke-width:8;stroke-linecap:round;stroke-miterlimit:10;}
	.st10{fill:#CCE5FA;stroke:#0F0C0D;stroke-width:8;stroke-miterlimit:10;}
	.st11{fill:#85AFCC;}
	.st12{fill:#797681;}
	.st13{fill:#C6C5CA;}
	.st14{fill:#659AD4;}
	.st15{fill:#457ABC;}
	.st16{fill:#0E9699;}
	.st17{fill:#C93E5A;}
	.st18{fill:#C52733;}
	.st19{fill:none;stroke:#070809;stroke-width:11;stroke-miterlimit:10;}
	.st20{fill:#877BB5;}
	.st21{fill:#F0D3BE;}
	.st22{fill:#EAC1AC;}
	.st23{fill:#7A9B3C;stroke:#130D0E;stroke-width:8;stroke-linecap:round;stroke-miterlimit:10;stroke-dasharray:970,20;}
	.st24{fill:#E7E9ED;}
	.st25{fill:#F3D374;}
	.st26{fill:#F0D0B5;}
</style>
<g>
	<path class="st12" d="M280,329.1c0,16.6-13.4,30-30,30s-30-13.5-30-30c0-16.6,13.5-30,30-30S280,312.5,280,329.1z"/>
	<path class="st12" d="M280,94c0,16.6-13.4,30-30,30s-30-13.5-30-30c0-16.6,13.5-30,30-30S280,77.4,280,94z"/>
	<path class="st0" d="M280,211.6c0,16.6-13.4,30-30,30s-30-13.5-30-30c0-16.6,13.5-30,30-30S280,195,280,211.6z"/>
	<path class="st13" d="M381.8,152.6c0,16.6-13.5,30-30,30c-16.6,0-30-13.5-30-30c0-16.6,13.5-30,30-30
		C368.4,122.6,381.8,136,381.8,152.6z"/>
	<path class="st0" d="M381.8,270.4c0,16.6-13.5,30-30,30c-16.6,0-30-13.5-30-30s13.5-30,30-30C368.4,240.3,381.8,253.8,381.8,270.4z
		"/>
	<path class="st0" d="M178.2,152.6c0,16.6-13.5,30-30,30s-30-13.5-30-30c0-16.6,13.4-30,30-30S178.2,136,178.2,152.6z"/>
	<path class="st13" d="M178.2,270.4c0,16.6-13.5,30-30,30s-30-13.5-30-30s13.4-30,30-30S178.2,253.8,178.2,270.4z"/>
	<path class="st7" d="M182.4,295.2l4.5-7.7l29.1,16.8l-4.5,7.7L182.4,295.2z"/>
	<path class="st7" d="M182.3,128l29.2-16.9l4.5,7.7l-29.2,16.9L182.3,128z"/>
	<path class="st7" d="M284.1,118.9l4.5-7.7l29.2,16.9l-4.5,7.7L284.1,118.9z"/>
	<path class="st7" d="M347.3,194.7h8.9v33.9h-8.9V194.7z"/>
	<path class="st7" d="M250,294.6c-19,0-34.5,15.5-34.5,34.5c0,19,15.5,34.5,34.5,34.5s34.5-15.5,34.5-34.5
		C284.5,310.1,269,294.6,250,294.6z M250,354.7c-14.1,0-25.6-11.5-25.6-25.6c0-14.1,11.5-25.6,25.6-25.6s25.6,11.5,25.6,25.6
		C275.6,343.2,264.1,354.7,250,354.7z"/>
	<path class="st7" d="M250,128.5c19,0,34.5-15.5,34.5-34.5c0-19-15.5-34.5-34.5-34.5S215.5,75,215.5,94
		C215.5,113,231,128.5,250,128.5z M250,68.4c14.1,0,25.6,11.5,25.6,25.6c0,14.1-11.5,25.6-25.6,25.6s-25.6-11.5-25.6-25.6
		C224.4,79.9,235.9,68.4,250,68.4z"/>
	<path class="st7" d="M250,246.1c19,0,34.5-15.5,34.5-34.5S269,177.1,250,177.1s-34.5,15.5-34.5,34.5S231,246.1,250,246.1z M250,186
		c14.1,0,25.6,11.5,25.6,25.6c0,14.1-11.5,25.6-25.6,25.6s-25.6-11.5-25.6-25.6C224.4,197.5,235.9,186,250,186z"/>
	<path class="st7" d="M351.8,187.1c19,0,34.5-15.5,34.5-34.5c0-19-15.5-34.5-34.5-34.5c-19,0-34.5,15.5-34.5,34.5
		C317.3,171.7,332.8,187.1,351.8,187.1z M351.8,127c14.1,0,25.6,11.5,25.6,25.6c0,14.1-11.5,25.6-25.6,25.6
		c-14.1,0-25.6-11.5-25.6-25.6C326.2,138.5,337.7,127,351.8,127z"/>
	<path class="st7" d="M351.8,235.9c-19,0-34.5,15.5-34.5,34.5s15.5,34.5,34.5,34.5c19,0,34.5-15.5,34.5-34.5
		S370.8,235.9,351.8,235.9z M351.8,296c-14.1,0-25.6-11.5-25.6-25.6c0-14.1,11.5-25.6,25.6-25.6c14.1,0,25.6,11.5,25.6,25.6
		C377.4,284.5,365.9,296,351.8,296z"/>
	<path class="st7" d="M148.2,187.1c19,0,34.5-15.5,34.5-34.5c0-19-15.5-34.5-34.5-34.5c-19,0-34.5,15.5-34.5,34.5
		C113.7,171.7,129.2,187.1,148.2,187.1z M148.2,127c14.1,0,25.6,11.5,25.6,25.6c0,14.1-11.5,25.6-25.6,25.6
		c-14.1,0-25.6-11.5-25.6-25.6C122.6,138.5,134.1,127,148.2,127z"/>
	<path class="st7" d="M148.2,235.9c-19,0-34.5,15.5-34.5,34.5s15.5,34.5,34.5,34.5c19,0,34.5-15.5,34.5-34.5
		S167.2,235.9,148.2,235.9z M148.2,296c-14.1,0-25.6-11.5-25.6-25.6c0-14.1,11.5-25.6,25.6-25.6c14.1,0,25.6,11.5,25.6,25.6
		C173.8,284.5,162.3,296,148.2,296z"/>
	<path class="st7" d="M245.5,136h8.9v33.7h-8.9V136z"/>
	<path class="st7" d="M182.2,245.6l29.3-16.9l4.5,7.7l-29.3,16.9L182.2,245.6z"/>
	<path class="st7" d="M284.1,236.4l4.5-7.7l29.3,16.9l-4.5,7.7L284.1,236.4z"/>
</g>
<g>
	<path d="M77.5,401.4h10.3c4.7,0,8.6,0.9,11.6,2.8c3.1,1.9,5.3,4.2,6.7,7.2c1.4,2.9,2.1,6,2.1,9.3c0,3.6-0.8,6.9-2.5,9.6
		c-1.7,2.8-4,4.9-6.8,6.4c-2.8,1.5-5.9,2.3-9.3,2.3H77.5V401.4z M88.6,434.1c2.8,0,5.2-0.5,7.4-1.6c2.2-1.1,3.9-2.7,5.1-4.8
		c1.2-2.1,1.8-4.6,1.8-7.4c0-2.9-0.6-5.5-1.9-7.6c-1.3-2.1-3-3.7-5.1-4.8s-4.4-1.6-6.9-1.6h-6.5v27.9H88.6z"/>
	<path d="M130.8,433.5l2.2,3.6c-1.1,0.8-2.4,1.4-3.7,1.8s-2.6,0.6-3.9,0.6c-2.4,0-4.5-0.5-6.3-1.5c-1.8-1-3.2-2.3-4.1-4.1
		c-1-1.7-1.5-3.7-1.5-5.9c0-2.1,0.5-4,1.6-5.8c1.1-1.8,2.5-3.1,4.3-4.2c1.8-1,3.8-1.5,6-1.5c2.8,0,5.2,0.8,7,2.5
		c1.9,1.6,3.2,3.9,3.9,6.9l-17,6c0.6,1.1,1.5,1.9,2.5,2.5c1.1,0.6,2.3,0.9,3.6,0.9C127.4,435.4,129.1,434.7,130.8,433.5z
		 M120.3,422.5c-1.3,1.4-1.9,3.2-1.9,5.3c0,0.5,0,0.9,0.1,1.2l12.5-4.6c-0.5-1.2-1.3-2.1-2.2-2.9c-1-0.7-2.1-1.1-3.6-1.1
		C123.3,420.4,121.6,421.1,120.3,422.5z"/>
	<path d="M156.5,438.8c-1.3,0.5-2.7,0.7-4.1,0.7c-2.3,0-4.4-0.5-6.2-1.4s-3.2-2.3-4.2-4c-1-1.7-1.5-3.7-1.5-6c0-2.2,0.5-4.2,1.6-5.9
		c1-1.7,2.4-3,4.2-4s3.6-1.4,5.6-1.4c3.3,0,6,0.9,8.2,2.7l-2.4,3.2c-0.7-0.5-1.5-1-2.4-1.3c-0.9-0.4-1.9-0.5-2.9-0.5
		c-1.3,0-2.5,0.3-3.5,1c-1.1,0.6-1.9,1.5-2.5,2.6c-0.6,1.1-0.9,2.3-0.9,3.7s0.3,2.6,1,3.7c0.6,1.1,1.5,2,2.6,2.7
		c1.1,0.7,2.4,1,3.8,1c1.8,0,3.3-0.5,4.6-1.6l2.5,3C159,437.8,157.9,438.4,156.5,438.8z"/>
	<path d="M181.6,433.5l2.2,3.6c-1.1,0.8-2.4,1.4-3.7,1.8s-2.6,0.6-3.9,0.6c-2.4,0-4.5-0.5-6.3-1.5c-1.8-1-3.2-2.3-4.1-4.1
		c-1-1.7-1.5-3.7-1.5-5.9c0-2.1,0.5-4,1.6-5.8c1.1-1.8,2.5-3.1,4.3-4.2c1.8-1,3.8-1.5,6-1.5c2.8,0,5.2,0.8,7,2.5
		c1.9,1.6,3.2,3.9,3.9,6.9l-17,6c0.6,1.1,1.5,1.9,2.5,2.5c1.1,0.6,2.3,0.9,3.6,0.9C178.1,435.4,179.9,434.7,181.6,433.5z
		 M171.1,422.5c-1.3,1.4-1.9,3.2-1.9,5.3c0,0.5,0,0.9,0.1,1.2l12.5-4.6c-0.5-1.2-1.3-2.1-2.2-2.9c-1-0.7-2.1-1.1-3.6-1.1
		C174,420.4,172.4,421.1,171.1,422.5z"/>
	<path d="M211.6,418.4c1.3,1.2,2,2.7,2,4.7V439h-4.9v-14.2c-0.1-1.2-0.4-2.2-1.1-2.9s-1.6-1.1-3-1.1c-1.9,0-3.5,0.8-4.7,2.3
		c-1.2,1.5-1.9,3.5-1.9,5.8V439h-4.8v-21.5h4.4l0.3,4.2c0.8-1.6,1.9-2.8,3.4-3.7c1.5-0.9,3.3-1.3,5.2-1.3
		C208.6,416.6,210.3,417.2,211.6,418.4z"/>
	<path d="M229,408v9.5h5.9v3.8H229V439h-4.9v-17.6h-4v-3.8h4V408H229z"/>
	<path d="M247.8,419.5c1-0.9,2.1-1.6,3.2-2.1s2.1-0.7,3-0.8l-0.2,4.8c-1.6-0.1-3,0.2-4.2,0.9s-2.3,1.7-3,2.9
		c-0.7,1.2-1.1,2.5-1.1,3.9v9.8h-4.8v-21.5h4.3l0.4,5.1C246,421.4,246.7,420.4,247.8,419.5z"/>
	<path d="M281.8,417.5V439H277v-3.5c-0.8,1-1.9,1.9-3.3,2.8s-3.1,1.3-4.9,1.3c-2,0-3.9-0.4-5.5-1.3c-1.6-0.9-2.9-2.2-3.9-3.9
		c-1-1.7-1.4-3.7-1.4-6.1c0-2.4,0.5-4.4,1.5-6.2c1-1.7,2.3-3.1,4-4.1c1.7-1,3.5-1.4,5.6-1.4c1.8,0,3.4,0.4,4.8,1.2s2.4,1.8,3.3,3.1
		l0.4-3.4H281.8z M274.6,434c1.3-1,2.1-2.3,2.4-4v-4.3c-0.4-1.5-1.3-2.8-2.6-3.7c-1.3-1-2.8-1.4-4.5-1.4c-1.3,0-2.5,0.3-3.6,0.9
		c-1.1,0.6-2,1.5-2.6,2.6c-0.6,1.1-1,2.4-1,3.8c0,1.4,0.3,2.7,1,3.8c0.7,1.1,1.5,2.1,2.7,2.7c1.1,0.7,2.3,1,3.6,1
		C271.8,435.5,273.3,435,274.6,434z"/>
	<path d="M295.1,398.7V439h-4.8v-40.3H295.1z"/>
	<path d="M304,407.8c0.6-0.5,1.3-0.8,2-0.8c0.8,0,1.4,0.3,2,0.8c0.6,0.5,0.9,1.2,0.9,1.9c0,0.8-0.3,1.4-0.9,1.9
		c-0.6,0.5-1.2,0.8-2,0.8c-0.8,0-1.4-0.3-2-0.8c-0.6-0.5-0.9-1.2-0.9-1.9C303.1,409,303.4,408.3,304,407.8z M308.3,417.5V439h-4.8
		v-21.5H308.3z"/>
	<path d="M321.9,435h12v4H314l12.2-17.6h-7.4c-1.1,0-2.1-0.3-2.8-1s-1.1-1.7-1.1-2.9v-2.1h3.7v0.7c0,0.6,0.1,0.9,0.4,1.1
		c0.3,0.2,0.7,0.3,1.4,0.3h13.8L321.9,435z"/>
	<path d="M362.9,417.5V439h-4.8v-3.5c-0.8,1-1.9,1.9-3.3,2.8s-3.1,1.3-4.9,1.3c-2,0-3.9-0.4-5.5-1.3c-1.6-0.9-2.9-2.2-3.9-3.9
		c-1-1.7-1.4-3.7-1.4-6.1c0-2.4,0.5-4.4,1.5-6.2c1-1.7,2.3-3.1,4-4.1c1.7-1,3.5-1.4,5.6-1.4c1.8,0,3.4,0.4,4.8,1.2s2.4,1.8,3.3,3.1
		l0.4-3.4H362.9z M355.7,434c1.3-1,2.1-2.3,2.4-4v-4.3c-0.4-1.5-1.3-2.8-2.6-3.7c-1.3-1-2.8-1.4-4.5-1.4c-1.3,0-2.5,0.3-3.6,0.9
		c-1.1,0.6-2,1.5-2.6,2.6c-0.6,1.1-1,2.4-1,3.8c0,1.4,0.3,2.7,1,3.8c0.7,1.1,1.5,2.1,2.7,2.7c1.1,0.7,2.3,1,3.6,1
		C352.9,435.5,354.4,435,355.7,434z"/>
	<path d="M378.3,408v9.5h5.9v3.8h-5.9V439h-4.9v-17.6h-4v-3.8h4V408H378.3z"/>
	<path d="M390.6,407.8c0.6-0.5,1.3-0.8,2-0.8c0.8,0,1.4,0.3,2,0.8c0.6,0.5,0.9,1.2,0.9,1.9c0,0.8-0.3,1.4-0.9,1.9
		c-0.6,0.5-1.2,0.8-2,0.8c-0.8,0-1.4-0.3-2-0.8c-0.6-0.5-0.9-1.2-0.9-1.9C389.7,409,390,408.3,390.6,407.8z M394.9,417.5V439h-4.8
		v-21.5H394.9z"/>
	<path d="M403,422.2c1-1.8,2.4-3.1,4.3-4.1c1.8-1,3.9-1.5,6.2-1.5s4.3,0.5,6.1,1.5c1.8,1,3.2,2.4,4.2,4.1c1,1.7,1.5,3.7,1.5,5.8
		c0,2.1-0.5,4.1-1.5,5.8c-1,1.8-2.4,3.1-4.2,4.1c-1.8,1-3.9,1.5-6.2,1.5c-2.3,0-4.3-0.5-6.1-1.4c-1.8-1-3.2-2.3-4.2-4
		s-1.5-3.7-1.5-6C401.4,425.9,401.9,424,403,422.2z M407.2,431.8c0.6,1.1,1.4,2,2.5,2.7c1.1,0.7,2.2,1,3.5,1c2,0,3.7-0.7,5-2.1
		c1.3-1.4,2-3.2,2-5.3s-0.7-3.9-2-5.3c-1.3-1.4-3-2.2-5-2.2c-1.3,0-2.5,0.3-3.5,1c-1,0.7-1.9,1.6-2.5,2.7c-0.6,1.1-0.9,2.4-0.9,3.7
		C406.3,429.4,406.6,430.7,407.2,431.8z"/>
	<path d="M450,418.4c1.3,1.2,2,2.7,2,4.7V439h-4.9v-14.2c-0.1-1.2-0.4-2.2-1.1-2.9c-0.7-0.7-1.6-1.1-3-1.1c-1.9,0-3.5,0.8-4.7,2.3
		c-1.2,1.5-1.9,3.5-1.9,5.8V439h-4.8v-21.5h4.4l0.3,4.2c0.8-1.6,1.9-2.8,3.4-3.7c1.5-0.9,3.3-1.3,5.2-1.3
		C447,416.6,448.7,417.2,450,418.4z"/>
</g>
</svg>
